<svg width="1429" height="557" viewBox="0 0 1429 557" fill="none" xmlns="http://www.w3.org/2000/svg">
<g clip-path="url(#clip0_188_926)">
<path d="M133.581 297.766C133.031 298.684 132.377 299.421 131.618 299.975C130.867 300.517 130.067 300.825 129.22 300.899C128.372 300.973 127.542 300.775 126.729 300.306L128.423 297.474C128.987 297.76 129.528 297.827 130.046 297.676C130.571 297.512 131.015 297.127 131.376 296.523C131.745 295.907 131.89 295.335 131.812 294.81C131.72 294.277 131.436 293.867 130.957 293.581C130.567 293.347 130.175 293.275 129.78 293.364C129.385 293.452 129.009 293.637 128.652 293.92C128.291 294.182 127.833 294.575 127.281 295.098C126.517 295.804 125.853 296.355 125.291 296.754C124.723 297.132 124.076 297.369 123.352 297.465C122.623 297.542 121.843 297.331 121.012 296.834C120.232 296.368 119.669 295.766 119.323 295.029C118.978 294.293 118.865 293.482 118.984 292.596C119.091 291.703 119.416 290.803 119.958 289.897C120.771 288.538 121.764 287.636 122.935 287.192C124.102 286.728 125.303 286.805 126.539 287.425L124.799 290.333C124.331 290.087 123.843 290.06 123.335 290.251C122.823 290.423 122.389 290.805 122.035 291.396C121.727 291.912 121.61 292.407 121.686 292.879C121.77 293.34 122.063 293.72 122.567 294.022C122.919 294.232 123.283 294.296 123.657 294.213C124.027 294.109 124.389 293.933 124.743 293.683C125.093 293.413 125.55 293.02 126.115 292.504C126.879 291.799 127.549 291.251 128.124 290.86C128.7 290.47 129.356 290.23 130.093 290.141C130.83 290.052 131.607 290.252 132.425 290.742C133.13 291.163 133.675 291.737 134.061 292.464C134.447 293.19 134.611 294.015 134.555 294.938C134.485 295.854 134.161 296.796 133.581 297.766ZM130.242 282.735C129.967 282.109 129.85 281.406 129.889 280.626C129.923 279.826 130.17 279.043 130.629 278.275C131.164 277.381 131.866 276.707 132.736 276.254C133.613 275.787 134.585 275.591 135.651 275.665C136.713 275.719 137.779 276.066 138.848 276.706C139.918 277.346 140.74 278.129 141.315 279.054C141.885 279.958 142.178 280.911 142.194 281.912C142.218 282.901 141.963 283.842 141.428 284.736C140.969 285.503 140.405 286.089 139.736 286.492C139.075 286.883 138.396 287.118 137.7 287.197L144.175 291.071L142.594 293.714L127.151 284.474L128.732 281.831L130.242 282.735ZM137.233 279.406C136.604 279.029 135.984 278.838 135.372 278.831C134.756 278.804 134.2 278.933 133.705 279.218C133.218 279.49 132.827 279.872 132.533 280.363C132.247 280.841 132.102 281.369 132.098 281.948C132.088 282.506 132.237 283.057 132.545 283.6C132.86 284.13 133.332 284.584 133.962 284.96C134.591 285.337 135.214 285.538 135.83 285.565C136.454 285.579 137.016 285.454 137.516 285.19C138.011 284.905 138.402 284.523 138.688 284.045C138.982 283.554 139.127 283.026 139.124 282.46C139.128 281.881 138.972 281.327 138.657 280.796C138.35 280.253 137.875 279.79 137.233 279.406ZM145.626 264.95C146.003 265.176 146.328 265.404 146.6 265.635L142.025 273.281C142.818 273.67 143.568 273.76 144.275 273.55C144.981 273.341 145.538 272.896 145.944 272.216C146.532 271.235 146.528 270.284 145.933 269.364L147.639 266.513C148.465 267.418 148.949 268.494 149.092 269.741C149.221 270.981 148.914 272.224 148.168 273.47C147.566 274.477 146.803 275.251 145.881 275.793C144.953 276.315 143.945 276.558 142.856 276.521C141.774 276.472 140.698 276.128 139.629 275.488C138.546 274.84 137.728 274.051 137.173 273.121C136.619 272.192 136.358 271.198 136.392 270.142C136.426 269.085 136.752 268.041 137.369 267.009C137.964 266.015 138.709 265.255 139.604 264.731C140.506 264.194 141.482 263.949 142.531 263.995C143.575 264.022 144.606 264.34 145.626 264.95ZM143.233 267.236C142.546 266.841 141.858 266.763 141.169 267C140.467 267.23 139.909 267.691 139.495 268.383C139.104 269.038 138.974 269.712 139.105 270.406C139.232 271.08 139.618 271.678 140.262 272.201L143.233 267.236ZM146.6 263.836C145.517 263.188 144.705 262.403 144.163 261.481C143.609 260.551 143.345 259.564 143.371 258.52C143.385 257.469 143.693 256.439 144.295 255.433C145.071 254.136 146.038 253.262 147.197 252.81C148.351 252.339 149.6 252.308 150.944 252.719L149.238 255.57C148.695 255.45 148.188 255.497 147.718 255.711C147.243 255.906 146.847 256.267 146.531 256.796C146.079 257.551 145.998 258.314 146.288 259.086C146.566 259.85 147.208 260.534 148.215 261.136C149.209 261.731 150.115 261.974 150.933 261.865C151.737 261.748 152.366 261.312 152.817 260.557C153.457 259.487 153.397 258.502 152.636 257.603L154.342 254.752C155.301 255.719 155.859 256.83 156.014 258.085C156.169 259.34 155.862 260.61 155.094 261.893C154.492 262.9 153.737 263.662 152.829 264.179C151.91 264.688 150.915 264.922 149.846 264.881C148.764 264.832 147.682 264.483 146.6 263.836ZM148.128 246.585C147.849 247.05 147.471 247.354 146.993 247.495C146.51 247.617 146.049 247.546 145.608 247.282C145.168 247.018 144.893 246.649 144.784 246.174C144.67 245.678 144.753 245.198 145.031 244.732C145.31 244.267 145.691 243.973 146.174 243.852C146.651 243.71 147.11 243.771 147.551 244.035C147.991 244.298 148.269 244.678 148.382 245.173C148.491 245.648 148.406 246.119 148.128 246.585ZM150.153 246.027L160.612 252.285L159.031 254.928L148.572 248.67L150.153 246.027ZM156.755 239.92L155.66 241.751L163.948 246.71L162.344 249.39L154.056 244.432L153.344 245.621L151.173 244.322L151.885 243.133L151.356 242.817C150.072 242.049 149.347 241.119 149.179 240.027C149.012 238.936 149.388 237.665 150.306 236.215L152.534 237.548C152.138 238.182 151.977 238.693 152.053 239.08C152.129 239.468 152.463 239.838 153.054 240.192L153.489 240.452L154.584 238.621L156.755 239.92ZM155.165 234.822C154.886 235.288 154.508 235.591 154.03 235.733C153.548 235.854 153.086 235.783 152.646 235.519C152.205 235.256 151.93 234.886 151.822 234.411C151.708 233.916 151.79 233.435 152.069 232.97C152.347 232.504 152.728 232.21 153.211 232.089C153.689 231.948 154.148 232.009 154.588 232.272C155.029 232.536 155.306 232.915 155.42 233.411C155.529 233.886 155.444 234.356 155.165 234.822ZM157.19 234.265L167.649 240.522L166.068 243.165L155.609 236.908L157.19 234.265ZM163.576 235.462C162.493 234.814 161.681 234.029 161.139 233.107C160.585 232.177 160.32 231.19 160.347 230.146C160.361 229.095 160.669 228.065 161.271 227.059C162.047 225.762 163.014 224.888 164.173 224.437C165.327 223.965 166.576 223.934 167.919 224.345L166.214 227.196C165.67 227.076 165.164 227.123 164.693 227.337C164.218 227.532 163.823 227.893 163.506 228.422C163.055 229.177 162.974 229.94 163.264 230.712C163.542 231.476 164.184 232.16 165.191 232.762C166.185 233.357 167.091 233.6 167.908 233.491C168.713 233.374 169.341 232.938 169.793 232.183C170.433 231.113 170.373 230.128 169.612 229.229L171.318 226.378C172.277 227.345 172.834 228.456 172.989 229.711C173.144 230.966 172.838 232.236 172.07 233.519C171.467 234.526 170.713 235.288 169.805 235.805C168.885 236.314 167.891 236.548 166.822 236.507C165.74 236.458 164.658 236.109 163.576 235.462ZM165.103 218.211C164.825 218.676 164.447 218.98 163.969 219.121C163.486 219.243 163.024 219.172 162.584 218.908C162.143 218.644 161.869 218.275 161.76 217.8C161.646 217.304 161.729 216.824 162.007 216.358C162.286 215.893 162.666 215.599 163.149 215.478C163.627 215.336 164.086 215.397 164.527 215.661C164.967 215.924 165.244 216.304 165.358 216.799C165.467 217.274 165.382 217.745 165.103 218.211ZM167.129 217.653L177.588 223.911L176.006 226.554L165.547 220.297L167.129 217.653ZM172.703 213.264L177.763 216.291C178.115 216.502 178.422 216.574 178.684 216.508C178.94 216.423 179.189 216.178 179.43 215.776L180.164 214.548L182.392 215.881L181.398 217.543C180.065 219.77 178.316 220.237 176.151 218.941L171.111 215.926L170.365 217.172L168.194 215.873L168.94 214.627L166.353 213.079L167.946 210.417L170.532 211.965L171.933 209.624L174.104 210.923L172.703 213.264ZM179.057 197.717L190.588 213.409L188.905 216.222L185.049 210.839L172.347 208.931L174.121 205.967L183.042 207.638L177.374 200.53L179.057 197.717Z" fill="#808080"/>
<path d="M274.787 99.833C274.652 99.2974 274.109 98.9723 273.573 99.107L264.845 101.301C264.309 101.435 263.984 101.979 264.119 102.514C264.253 103.05 264.797 103.375 265.332 103.24L273.091 101.29L275.041 109.049C275.176 109.585 275.719 109.91 276.255 109.775C276.79 109.641 277.115 109.097 276.981 108.562L274.787 99.833ZM78.7585 428.053L274.675 100.59L272.959 99.5634L77.0422 427.026L78.7585 428.053Z" fill="#808080"/>
<path d="M253.973 211.322C253.973 209.826 254.311 208.484 254.985 207.296C255.66 206.093 256.577 205.155 257.735 204.48C258.909 203.805 260.207 203.468 261.629 203.468C263.301 203.468 264.761 203.871 266.007 204.678C267.254 205.485 268.163 206.629 268.735 208.11H266.337C265.912 207.186 265.296 206.475 264.489 205.976C263.697 205.477 262.744 205.228 261.629 205.228C260.559 205.228 259.598 205.477 258.747 205.976C257.897 206.475 257.229 207.186 256.745 208.11C256.261 209.019 256.019 210.09 256.019 211.322C256.019 212.539 256.261 213.61 256.745 214.534C257.229 215.443 257.897 216.147 258.747 216.646C259.598 217.145 260.559 217.394 261.629 217.394C262.744 217.394 263.697 217.152 264.489 216.668C265.296 216.169 265.912 215.458 266.337 214.534H268.735C268.163 216.001 267.254 217.137 266.007 217.944C264.761 218.736 263.301 219.132 261.629 219.132C260.207 219.132 258.909 218.802 257.735 218.142C256.577 217.467 255.66 216.536 254.985 215.348C254.311 214.16 253.973 212.818 253.973 211.322ZM276.973 219.198C275.844 219.198 274.817 218.941 273.893 218.428C272.984 217.915 272.265 217.189 271.737 216.25C271.224 215.297 270.967 214.197 270.967 212.95C270.967 211.718 271.231 210.633 271.759 209.694C272.302 208.741 273.035 208.015 273.959 207.516C274.883 207.003 275.917 206.746 277.061 206.746C278.205 206.746 279.239 207.003 280.163 207.516C281.087 208.015 281.813 208.733 282.341 209.672C282.884 210.611 283.155 211.703 283.155 212.95C283.155 214.197 282.877 215.297 282.319 216.25C281.777 217.189 281.036 217.915 280.097 218.428C279.159 218.941 278.117 219.198 276.973 219.198ZM276.973 217.438C277.692 217.438 278.367 217.269 278.997 216.932C279.628 216.595 280.134 216.089 280.515 215.414C280.911 214.739 281.109 213.918 281.109 212.95C281.109 211.982 280.919 211.161 280.537 210.486C280.156 209.811 279.657 209.313 279.041 208.99C278.425 208.653 277.758 208.484 277.039 208.484C276.306 208.484 275.631 208.653 275.015 208.99C274.414 209.313 273.93 209.811 273.563 210.486C273.197 211.161 273.013 211.982 273.013 212.95C273.013 213.933 273.189 214.761 273.541 215.436C273.908 216.111 274.392 216.617 274.993 216.954C275.595 217.277 276.255 217.438 276.973 217.438ZM300.286 206.724C301.224 206.724 302.06 206.922 302.794 207.318C303.527 207.699 304.106 208.279 304.532 209.056C304.957 209.833 305.17 210.779 305.17 211.894V219H303.19V212.18C303.19 210.977 302.889 210.061 302.288 209.43C301.701 208.785 300.902 208.462 299.89 208.462C298.848 208.462 298.02 208.799 297.404 209.474C296.788 210.134 296.48 211.095 296.48 212.356V219H294.5V212.18C294.5 210.977 294.199 210.061 293.598 209.43C293.011 208.785 292.212 208.462 291.2 208.462C290.158 208.462 289.33 208.799 288.714 209.474C288.098 210.134 287.79 211.095 287.79 212.356V219H285.788V206.944H287.79V208.682C288.186 208.051 288.714 207.567 289.374 207.23C290.048 206.893 290.789 206.724 291.596 206.724C292.608 206.724 293.502 206.951 294.28 207.406C295.057 207.861 295.636 208.528 296.018 209.408C296.355 208.557 296.912 207.897 297.69 207.428C298.467 206.959 299.332 206.724 300.286 206.724ZM310.456 209.166C310.852 208.477 311.438 207.905 312.216 207.45C313.008 206.981 313.924 206.746 314.966 206.746C316.036 206.746 317.004 207.003 317.87 207.516C318.75 208.029 319.439 208.755 319.938 209.694C320.436 210.618 320.686 211.696 320.686 212.928C320.686 214.145 320.436 215.231 319.938 216.184C319.439 217.137 318.75 217.878 317.87 218.406C317.004 218.934 316.036 219.198 314.966 219.198C313.939 219.198 313.03 218.971 312.238 218.516C311.46 218.047 310.866 217.467 310.456 216.778V224.72H308.454V206.944H310.456V209.166ZM318.64 212.928C318.64 212.019 318.456 211.227 318.09 210.552C317.723 209.877 317.224 209.364 316.594 209.012C315.978 208.66 315.296 208.484 314.548 208.484C313.814 208.484 313.132 208.667 312.502 209.034C311.886 209.386 311.387 209.907 311.006 210.596C310.639 211.271 310.456 212.055 310.456 212.95C310.456 213.859 310.639 214.659 311.006 215.348C311.387 216.023 311.886 216.543 312.502 216.91C313.132 217.262 313.814 217.438 314.548 217.438C315.296 217.438 315.978 217.262 316.594 216.91C317.224 216.543 317.723 216.023 318.09 215.348C318.456 214.659 318.64 213.852 318.64 212.928ZM328.579 219.198C327.45 219.198 326.423 218.941 325.499 218.428C324.59 217.915 323.871 217.189 323.343 216.25C322.83 215.297 322.573 214.197 322.573 212.95C322.573 211.718 322.837 210.633 323.365 209.694C323.908 208.741 324.641 208.015 325.565 207.516C326.489 207.003 327.523 206.746 328.667 206.746C329.811 206.746 330.845 207.003 331.769 207.516C332.693 208.015 333.419 208.733 333.947 209.672C334.49 210.611 334.761 211.703 334.761 212.95C334.761 214.197 334.482 215.297 333.925 216.25C333.382 217.189 332.642 217.915 331.703 218.428C330.764 218.941 329.723 219.198 328.579 219.198ZM328.579 217.438C329.298 217.438 329.972 217.269 330.603 216.932C331.234 216.595 331.74 216.089 332.121 215.414C332.517 214.739 332.715 213.918 332.715 212.95C332.715 211.982 332.524 211.161 332.143 210.486C331.762 209.811 331.263 209.313 330.647 208.99C330.031 208.653 329.364 208.484 328.645 208.484C327.912 208.484 327.237 208.653 326.621 208.99C326.02 209.313 325.536 209.811 325.169 210.486C324.802 211.161 324.619 211.982 324.619 212.95C324.619 213.933 324.795 214.761 325.147 215.436C325.514 216.111 325.998 216.617 326.599 216.954C327.2 217.277 327.86 217.438 328.579 217.438ZM343.267 206.724C344.734 206.724 345.922 207.171 346.831 208.066C347.741 208.946 348.195 210.222 348.195 211.894V219H346.215V212.18C346.215 210.977 345.915 210.061 345.313 209.43C344.712 208.785 343.891 208.462 342.849 208.462C341.793 208.462 340.95 208.792 340.319 209.452C339.703 210.112 339.395 211.073 339.395 212.334V219H337.393V206.944H339.395V208.66C339.791 208.044 340.327 207.567 341.001 207.23C341.691 206.893 342.446 206.724 343.267 206.724ZM362.465 212.51C362.465 212.891 362.443 213.295 362.399 213.72H352.763C352.837 214.908 353.24 215.839 353.973 216.514C354.721 217.174 355.623 217.504 356.679 217.504C357.545 217.504 358.263 217.306 358.835 216.91C359.422 216.499 359.833 215.957 360.067 215.282H362.223C361.901 216.441 361.255 217.387 360.287 218.12C359.319 218.839 358.117 219.198 356.679 219.198C355.535 219.198 354.509 218.941 353.599 218.428C352.705 217.915 352.001 217.189 351.487 216.25C350.974 215.297 350.717 214.197 350.717 212.95C350.717 211.703 350.967 210.611 351.465 209.672C351.964 208.733 352.661 208.015 353.555 207.516C354.465 207.003 355.506 206.746 356.679 206.746C357.823 206.746 358.835 206.995 359.715 207.494C360.595 207.993 361.27 208.682 361.739 209.562C362.223 210.427 362.465 211.41 362.465 212.51ZM360.397 212.092C360.397 211.329 360.229 210.677 359.891 210.134C359.554 209.577 359.092 209.159 358.505 208.88C357.933 208.587 357.295 208.44 356.591 208.44C355.579 208.44 354.714 208.763 353.995 209.408C353.291 210.053 352.888 210.948 352.785 212.092H360.397ZM370.982 206.724C372.449 206.724 373.637 207.171 374.546 208.066C375.455 208.946 375.91 210.222 375.91 211.894V219H373.93V212.18C373.93 210.977 373.629 210.061 373.028 209.43C372.427 208.785 371.605 208.462 370.564 208.462C369.508 208.462 368.665 208.792 368.034 209.452C367.418 210.112 367.11 211.073 367.11 212.334V219H365.108V206.944H367.11V208.66C367.506 208.044 368.041 207.567 368.716 207.23C369.405 206.893 370.161 206.724 370.982 206.724ZM381.622 208.594V215.7C381.622 216.287 381.747 216.705 381.996 216.954C382.246 217.189 382.678 217.306 383.294 217.306H384.768V219H382.964C381.85 219 381.014 218.743 380.456 218.23C379.899 217.717 379.62 216.873 379.62 215.7V208.594H378.058V206.944H379.62V203.908H381.622V206.944H384.768V208.594H381.622Z" fill="black"/>
<path d="M273.105 291.154C272.093 291.154 271.183 290.978 270.377 290.626C269.585 290.259 268.961 289.761 268.507 289.13C268.052 288.485 267.817 287.744 267.803 286.908H269.937C270.01 287.627 270.303 288.235 270.817 288.734C271.345 289.218 272.107 289.46 273.105 289.46C274.058 289.46 274.806 289.225 275.349 288.756C275.906 288.272 276.185 287.656 276.185 286.908C276.185 286.321 276.023 285.845 275.701 285.478C275.378 285.111 274.975 284.833 274.491 284.642C274.007 284.451 273.354 284.246 272.533 284.026C271.521 283.762 270.707 283.498 270.091 283.234C269.489 282.97 268.969 282.559 268.529 282.002C268.103 281.43 267.891 280.667 267.891 279.714C267.891 278.878 268.103 278.137 268.529 277.492C268.954 276.847 269.548 276.348 270.311 275.996C271.088 275.644 271.975 275.468 272.973 275.468C274.41 275.468 275.583 275.827 276.493 276.546C277.417 277.265 277.937 278.218 278.055 279.406H275.855C275.781 278.819 275.473 278.306 274.931 277.866C274.388 277.411 273.669 277.184 272.775 277.184C271.939 277.184 271.257 277.404 270.729 277.844C270.201 278.269 269.937 278.871 269.937 279.648C269.937 280.205 270.091 280.66 270.399 281.012C270.721 281.364 271.11 281.635 271.565 281.826C272.034 282.002 272.687 282.207 273.523 282.442C274.535 282.721 275.349 282.999 275.965 283.278C276.581 283.542 277.109 283.96 277.549 284.532C277.989 285.089 278.209 285.852 278.209 286.82C278.209 287.568 278.011 288.272 277.615 288.932C277.219 289.592 276.632 290.127 275.855 290.538C275.077 290.949 274.161 291.154 273.105 291.154ZM292.155 284.51C292.155 284.891 292.133 285.295 292.089 285.72H282.453C282.526 286.908 282.93 287.839 283.663 288.514C284.411 289.174 285.313 289.504 286.369 289.504C287.234 289.504 287.953 289.306 288.525 288.91C289.112 288.499 289.522 287.957 289.757 287.282H291.913C291.59 288.441 290.945 289.387 289.977 290.12C289.009 290.839 287.806 291.198 286.369 291.198C285.225 291.198 284.198 290.941 283.289 290.428C282.394 289.915 281.69 289.189 281.177 288.25C280.664 287.297 280.407 286.197 280.407 284.95C280.407 283.703 280.656 282.611 281.155 281.672C281.654 280.733 282.35 280.015 283.245 279.516C284.154 279.003 285.196 278.746 286.369 278.746C287.513 278.746 288.525 278.995 289.405 279.494C290.285 279.993 290.96 280.682 291.429 281.562C291.913 282.427 292.155 283.41 292.155 284.51ZM290.087 284.092C290.087 283.329 289.918 282.677 289.581 282.134C289.244 281.577 288.782 281.159 288.195 280.88C287.623 280.587 286.985 280.44 286.281 280.44C285.269 280.44 284.404 280.763 283.685 281.408C282.981 282.053 282.578 282.948 282.475 284.092H290.087ZM309.296 278.724C310.234 278.724 311.07 278.922 311.804 279.318C312.537 279.699 313.116 280.279 313.542 281.056C313.967 281.833 314.18 282.779 314.18 283.894V291H312.2V284.18C312.2 282.977 311.899 282.061 311.298 281.43C310.711 280.785 309.912 280.462 308.9 280.462C307.858 280.462 307.03 280.799 306.414 281.474C305.798 282.134 305.49 283.095 305.49 284.356V291H303.51V284.18C303.51 282.977 303.209 282.061 302.608 281.43C302.021 280.785 301.222 280.462 300.21 280.462C299.168 280.462 298.34 280.799 297.724 281.474C297.108 282.134 296.8 283.095 296.8 284.356V291H294.798V278.944H296.8V280.682C297.196 280.051 297.724 279.567 298.384 279.23C299.058 278.893 299.799 278.724 300.606 278.724C301.618 278.724 302.512 278.951 303.29 279.406C304.067 279.861 304.646 280.528 305.028 281.408C305.365 280.557 305.922 279.897 306.7 279.428C307.477 278.959 308.342 278.724 309.296 278.724ZM316.716 284.928C316.716 283.696 316.965 282.618 317.464 281.694C317.962 280.755 318.644 280.029 319.51 279.516C320.39 279.003 321.365 278.746 322.436 278.746C323.492 278.746 324.408 278.973 325.186 279.428C325.963 279.883 326.542 280.455 326.924 281.144V278.944H328.948V291H326.924V288.756C326.528 289.46 325.934 290.047 325.142 290.516C324.364 290.971 323.455 291.198 322.414 291.198C321.343 291.198 320.375 290.934 319.51 290.406C318.644 289.878 317.962 289.137 317.464 288.184C316.965 287.231 316.716 286.145 316.716 284.928ZM326.924 284.95C326.924 284.041 326.74 283.249 326.374 282.574C326.007 281.899 325.508 281.386 324.878 281.034C324.262 280.667 323.58 280.484 322.832 280.484C322.084 280.484 321.402 280.66 320.786 281.012C320.17 281.364 319.678 281.877 319.312 282.552C318.945 283.227 318.762 284.019 318.762 284.928C318.762 285.852 318.945 286.659 319.312 287.348C319.678 288.023 320.17 288.543 320.786 288.91C321.402 289.262 322.084 289.438 322.832 289.438C323.58 289.438 324.262 289.262 324.878 288.91C325.508 288.543 326.007 288.023 326.374 287.348C326.74 286.659 326.924 285.859 326.924 284.95ZM338.205 278.724C339.671 278.724 340.859 279.171 341.769 280.066C342.678 280.946 343.133 282.222 343.133 283.894V291H341.153V284.18C341.153 282.977 340.852 282.061 340.251 281.43C339.649 280.785 338.828 280.462 337.787 280.462C336.731 280.462 335.887 280.792 335.257 281.452C334.641 282.112 334.333 283.073 334.333 284.334V291H332.331V278.944H334.333V280.66C334.729 280.044 335.264 279.567 335.939 279.23C336.628 278.893 337.383 278.724 338.205 278.724ZM348.845 280.594V287.7C348.845 288.287 348.97 288.705 349.219 288.954C349.468 289.189 349.901 289.306 350.517 289.306H351.991V291H350.187C349.072 291 348.236 290.743 347.679 290.23C347.122 289.717 346.843 288.873 346.843 287.7V280.594H345.281V278.944H346.843V275.908H348.845V278.944H351.991V280.594H348.845ZM355.451 276.986C355.069 276.986 354.747 276.854 354.483 276.59C354.219 276.326 354.087 276.003 354.087 275.622C354.087 275.241 354.219 274.918 354.483 274.654C354.747 274.39 355.069 274.258 355.451 274.258C355.817 274.258 356.125 274.39 356.375 274.654C356.639 274.918 356.771 275.241 356.771 275.622C356.771 276.003 356.639 276.326 356.375 276.59C356.125 276.854 355.817 276.986 355.451 276.986ZM356.419 278.944V291H354.417V278.944H356.419ZM359.083 284.95C359.083 283.703 359.332 282.618 359.831 281.694C360.329 280.755 361.019 280.029 361.899 279.516C362.793 279.003 363.813 278.746 364.957 278.746C366.438 278.746 367.655 279.105 368.609 279.824C369.577 280.543 370.215 281.54 370.523 282.816H368.367C368.161 282.083 367.758 281.503 367.157 281.078C366.57 280.653 365.837 280.44 364.957 280.44C363.813 280.44 362.889 280.836 362.185 281.628C361.481 282.405 361.129 283.513 361.129 284.95C361.129 286.402 361.481 287.524 362.185 288.316C362.889 289.108 363.813 289.504 364.957 289.504C365.837 289.504 366.57 289.299 367.157 288.888C367.743 288.477 368.147 287.891 368.367 287.128H370.523C370.2 288.36 369.555 289.35 368.587 290.098C367.619 290.831 366.409 291.198 364.957 291.198C363.813 291.198 362.793 290.941 361.899 290.428C361.019 289.915 360.329 289.189 359.831 288.25C359.332 287.311 359.083 286.211 359.083 284.95Z" fill="black"/>
<path d="M284.102 352.154C284.102 353.43 283.662 354.493 282.782 355.344C281.917 356.18 280.59 356.598 278.8 356.598H275.852V363H273.85V347.666H278.8C280.531 347.666 281.844 348.084 282.738 348.92C283.648 349.756 284.102 350.834 284.102 352.154ZM278.8 354.948C279.915 354.948 280.736 354.706 281.264 354.222C281.792 353.738 282.056 353.049 282.056 352.154C282.056 350.262 280.971 349.316 278.8 349.316H275.852V354.948H278.8ZM288.592 352.902C288.944 352.213 289.443 351.677 290.088 351.296C290.748 350.915 291.548 350.724 292.486 350.724V352.792H291.958C289.714 352.792 288.592 354.009 288.592 356.444V363H286.59V350.944H288.592V352.902ZM295.832 348.986C295.45 348.986 295.128 348.854 294.864 348.59C294.6 348.326 294.468 348.003 294.468 347.622C294.468 347.241 294.6 346.918 294.864 346.654C295.128 346.39 295.45 346.258 295.832 346.258C296.198 346.258 296.506 346.39 296.756 346.654C297.02 346.918 297.152 347.241 297.152 347.622C297.152 348.003 297.02 348.326 296.756 348.59C296.506 348.854 296.198 348.986 295.832 348.986ZM296.8 350.944V363H294.798V350.944H296.8ZM314.71 350.724C315.648 350.724 316.484 350.922 317.218 351.318C317.951 351.699 318.53 352.279 318.956 353.056C319.381 353.833 319.594 354.779 319.594 355.894V363H317.614V356.18C317.614 354.977 317.313 354.061 316.712 353.43C316.125 352.785 315.326 352.462 314.314 352.462C313.272 352.462 312.444 352.799 311.828 353.474C311.212 354.134 310.904 355.095 310.904 356.356V363H308.924V356.18C308.924 354.977 308.623 354.061 308.022 353.43C307.435 352.785 306.636 352.462 305.624 352.462C304.582 352.462 303.754 352.799 303.138 353.474C302.522 354.134 302.214 355.095 302.214 356.356V363H300.212V350.944H302.214V352.682C302.61 352.051 303.138 351.567 303.798 351.23C304.472 350.893 305.213 350.724 306.02 350.724C307.032 350.724 307.926 350.951 308.704 351.406C309.481 351.861 310.06 352.528 310.442 353.408C310.779 352.557 311.336 351.897 312.114 351.428C312.891 350.959 313.756 350.724 314.71 350.724ZM323.912 348.986C323.53 348.986 323.208 348.854 322.944 348.59C322.68 348.326 322.548 348.003 322.548 347.622C322.548 347.241 322.68 346.918 322.944 346.654C323.208 346.39 323.53 346.258 323.912 346.258C324.278 346.258 324.586 346.39 324.836 346.654C325.1 346.918 325.232 347.241 325.232 347.622C325.232 348.003 325.1 348.326 324.836 348.59C324.586 348.854 324.278 348.986 323.912 348.986ZM324.88 350.944V363H322.878V350.944H324.88ZM330.734 352.594V359.7C330.734 360.287 330.858 360.705 331.108 360.954C331.357 361.189 331.79 361.306 332.406 361.306H333.88V363H332.076C330.961 363 330.125 362.743 329.568 362.23C329.01 361.717 328.732 360.873 328.732 359.7V352.594H327.17V350.944H328.732V347.908H330.734V350.944H333.88V352.594H330.734ZM337.339 348.986C336.958 348.986 336.635 348.854 336.371 348.59C336.107 348.326 335.975 348.003 335.975 347.622C335.975 347.241 336.107 346.918 336.371 346.654C336.635 346.39 336.958 346.258 337.339 346.258C337.706 346.258 338.014 346.39 338.263 346.654C338.527 346.918 338.659 347.241 338.659 347.622C338.659 348.003 338.527 348.326 338.263 348.59C338.014 348.854 337.706 348.986 337.339 348.986ZM338.307 350.944V363H336.305V350.944H338.307ZM346.207 361.152L349.947 350.944H352.081L347.351 363H345.019L340.289 350.944H342.445L346.207 361.152ZM365.051 356.51C365.051 356.891 365.029 357.295 364.985 357.72H355.349C355.423 358.908 355.826 359.839 356.559 360.514C357.307 361.174 358.209 361.504 359.265 361.504C360.131 361.504 360.849 361.306 361.421 360.91C362.008 360.499 362.419 359.957 362.653 359.282H364.809C364.487 360.441 363.841 361.387 362.873 362.12C361.905 362.839 360.703 363.198 359.265 363.198C358.121 363.198 357.095 362.941 356.185 362.428C355.291 361.915 354.587 361.189 354.073 360.25C353.56 359.297 353.303 358.197 353.303 356.95C353.303 355.703 353.553 354.611 354.051 353.672C354.55 352.733 355.247 352.015 356.141 351.516C357.051 351.003 358.092 350.746 359.265 350.746C360.409 350.746 361.421 350.995 362.301 351.494C363.181 351.993 363.856 352.682 364.325 353.562C364.809 354.427 365.051 355.41 365.051 356.51ZM362.983 356.092C362.983 355.329 362.815 354.677 362.477 354.134C362.14 353.577 361.678 353.159 361.091 352.88C360.519 352.587 359.881 352.44 359.177 352.44C358.165 352.44 357.3 352.763 356.581 353.408C355.877 354.053 355.474 354.948 355.371 356.092H362.983Z" fill="black"/>
<path d="M296.509 419.666L290.723 435H288.413L282.627 419.666H284.761L289.579 432.888L294.397 419.666H296.509ZM297.956 428.928C297.956 427.696 298.205 426.618 298.704 425.694C299.202 424.755 299.884 424.029 300.75 423.516C301.63 423.003 302.605 422.746 303.676 422.746C304.732 422.746 305.648 422.973 306.426 423.428C307.203 423.883 307.782 424.455 308.164 425.144V422.944H310.188V435H308.164V432.756C307.768 433.46 307.174 434.047 306.382 434.516C305.604 434.971 304.695 435.198 303.654 435.198C302.583 435.198 301.615 434.934 300.75 434.406C299.884 433.878 299.202 433.137 298.704 432.184C298.205 431.231 297.956 430.145 297.956 428.928ZM308.164 428.95C308.164 428.041 307.98 427.249 307.614 426.574C307.247 425.899 306.748 425.386 306.118 425.034C305.502 424.667 304.82 424.484 304.072 424.484C303.324 424.484 302.642 424.66 302.026 425.012C301.41 425.364 300.918 425.877 300.552 426.552C300.185 427.227 300.002 428.019 300.002 428.928C300.002 429.852 300.185 430.659 300.552 431.348C300.918 432.023 301.41 432.543 302.026 432.91C302.642 433.262 303.324 433.438 304.072 433.438C304.82 433.438 305.502 433.262 306.118 432.91C306.748 432.543 307.247 432.023 307.614 431.348C307.98 430.659 308.164 429.859 308.164 428.95ZM315.573 418.72V435H313.571V418.72H315.573ZM329.677 422.944V435H327.675V433.218C327.294 433.834 326.758 434.318 326.069 434.67C325.394 435.007 324.646 435.176 323.825 435.176C322.886 435.176 322.043 434.985 321.295 434.604C320.547 434.208 319.953 433.621 319.513 432.844C319.088 432.067 318.875 431.121 318.875 430.006V422.944H320.855V429.742C320.855 430.93 321.156 431.847 321.757 432.492C322.358 433.123 323.18 433.438 324.221 433.438C325.292 433.438 326.135 433.108 326.751 432.448C327.367 431.788 327.675 430.827 327.675 429.566V422.944H329.677ZM344.057 428.51C344.057 428.891 344.035 429.295 343.991 429.72H334.355C334.429 430.908 334.832 431.839 335.565 432.514C336.313 433.174 337.215 433.504 338.271 433.504C339.137 433.504 339.855 433.306 340.427 432.91C341.014 432.499 341.425 431.957 341.659 431.282H343.815C343.493 432.441 342.847 433.387 341.879 434.12C340.911 434.839 339.709 435.198 338.271 435.198C337.127 435.198 336.101 434.941 335.191 434.428C334.297 433.915 333.593 433.189 333.079 432.25C332.566 431.297 332.309 430.197 332.309 428.95C332.309 427.703 332.559 426.611 333.057 425.672C333.556 424.733 334.253 424.015 335.147 423.516C336.057 423.003 337.098 422.746 338.271 422.746C339.415 422.746 340.427 422.995 341.307 423.494C342.187 423.993 342.862 424.682 343.331 425.562C343.815 426.427 344.057 427.41 344.057 428.51ZM341.989 428.092C341.989 427.329 341.821 426.677 341.483 426.134C341.146 425.577 340.684 425.159 340.097 424.88C339.525 424.587 338.887 424.44 338.183 424.44C337.171 424.44 336.306 424.763 335.587 425.408C334.883 426.053 334.48 426.948 334.377 428.092H341.989ZM350.968 435.198C350.044 435.198 349.215 435.044 348.482 434.736C347.749 434.413 347.169 433.973 346.744 433.416C346.319 432.844 346.084 432.191 346.04 431.458H348.108C348.167 432.059 348.445 432.551 348.944 432.932C349.457 433.313 350.125 433.504 350.946 433.504C351.709 433.504 352.31 433.335 352.75 432.998C353.19 432.661 353.41 432.235 353.41 431.722C353.41 431.194 353.175 430.805 352.706 430.556C352.237 430.292 351.511 430.035 350.528 429.786C349.633 429.551 348.9 429.317 348.328 429.082C347.771 428.833 347.287 428.473 346.876 428.004C346.48 427.52 346.282 426.889 346.282 426.112C346.282 425.496 346.465 424.931 346.832 424.418C347.199 423.905 347.719 423.501 348.394 423.208C349.069 422.9 349.839 422.746 350.704 422.746C352.039 422.746 353.117 423.083 353.938 423.758C354.759 424.433 355.199 425.357 355.258 426.53H353.256C353.212 425.899 352.955 425.393 352.486 425.012C352.031 424.631 351.415 424.44 350.638 424.44C349.919 424.44 349.347 424.594 348.922 424.902C348.497 425.21 348.284 425.613 348.284 426.112C348.284 426.508 348.409 426.838 348.658 427.102C348.922 427.351 349.245 427.557 349.626 427.718C350.022 427.865 350.565 428.033 351.254 428.224C352.119 428.459 352.823 428.693 353.366 428.928C353.909 429.148 354.371 429.485 354.752 429.94C355.148 430.395 355.353 430.989 355.368 431.722C355.368 432.382 355.185 432.976 354.818 433.504C354.451 434.032 353.931 434.45 353.256 434.758C352.596 435.051 351.833 435.198 350.968 435.198Z" fill="black"/>
<line x1="126" y1="392.5" x2="1071" y2="392.5" stroke="#808080" stroke-dasharray="8 8"/>
<line x1="172" y1="318.5" x2="1071" y2="318.5" stroke="#808080" stroke-dasharray="8 8"/>
<line x1="211" y1="252.5" x2="1071" y2="252.5" stroke="#808080" stroke-dasharray="8 8"/>
<circle cx="608.5" cy="428.5" r="12.5" fill="#AF071F"/>
<path d="M641.21 425.924L640.396 429.73H643.3V431.93H639.934L639.054 436H636.656L637.536 431.93H633.224L632.344 436H629.946L630.826 431.93H627.416V429.73H631.288L632.102 425.924H628.714V423.724H632.564L633.422 419.72H635.82L634.962 423.724H639.274L640.132 419.72H642.53L641.672 423.724H644.598V425.924H641.21ZM638.812 425.924H634.5L633.686 429.73H637.998L638.812 425.924ZM656.788 432.876H650.386L649.286 436H646.668L652.146 420.688H655.05L660.528 436H657.888L656.788 432.876ZM656.084 430.83L653.598 423.724L651.09 430.83H656.084ZM671.908 420.71V422.756H665.418V427.266H670.478V429.312H665.418V436H662.91V420.71H671.908ZM673.902 427.772C673.902 425.235 674.327 423.255 675.178 421.832C676.043 420.395 677.525 419.676 679.622 419.676C681.719 419.676 683.193 420.395 684.044 421.832C684.909 423.255 685.342 425.235 685.342 427.772C685.342 430.339 684.909 432.348 684.044 433.8C683.193 435.237 681.719 435.956 679.622 435.956C677.525 435.956 676.043 435.237 675.178 433.8C674.327 432.348 673.902 430.339 673.902 427.772ZM682.878 427.772C682.878 426.584 682.797 425.579 682.636 424.758C682.489 423.937 682.181 423.269 681.712 422.756C681.243 422.228 680.546 421.964 679.622 421.964C678.698 421.964 678.001 422.228 677.532 422.756C677.063 423.269 676.747 423.937 676.586 424.758C676.439 425.579 676.366 426.584 676.366 427.772C676.366 429.004 676.439 430.038 676.586 430.874C676.733 431.71 677.041 432.385 677.51 432.898C677.994 433.411 678.698 433.668 679.622 433.668C680.546 433.668 681.243 433.411 681.712 432.898C682.196 432.385 682.511 431.71 682.658 430.874C682.805 430.038 682.878 429.004 682.878 427.772ZM698.16 421.898L692.044 436H689.514L695.696 422.162H687.556V420.028H698.16V421.898ZM699.976 422.25V419.962H704.552V436H702.022V422.25H699.976ZM717.326 420.71V422.756H710.836V427.266H715.896V429.312H710.836V436H708.328V420.71H717.326Z" fill="#404040"/>
<circle cx="608.5" cy="356.5" r="12.5" fill="#AF071F"/>
<path d="M627.656 357.928C627.656 356.681 627.905 355.589 628.404 354.65C628.917 353.697 629.621 352.963 630.516 352.45C631.41 351.937 632.437 351.68 633.596 351.68C635.062 351.68 636.272 352.032 637.226 352.736C638.194 353.425 638.846 354.415 639.184 355.706H636.478C636.258 355.105 635.906 354.635 635.422 354.298C634.938 353.961 634.329 353.792 633.596 353.792C632.569 353.792 631.748 354.159 631.132 354.892C630.53 355.611 630.23 356.623 630.23 357.928C630.23 359.233 630.53 360.253 631.132 360.986C631.748 361.719 632.569 362.086 633.596 362.086C635.048 362.086 636.008 361.448 636.478 360.172H639.184C638.832 361.404 638.172 362.387 637.204 363.12C636.236 363.839 635.033 364.198 633.596 364.198C632.437 364.198 631.41 363.941 630.516 363.428C629.621 362.9 628.917 362.167 628.404 361.228C627.905 360.275 627.656 359.175 627.656 357.928ZM646.941 364.198C645.797 364.198 644.763 363.941 643.839 363.428C642.915 362.9 642.189 362.167 641.661 361.228C641.133 360.275 640.869 359.175 640.869 357.928C640.869 356.696 641.141 355.603 641.683 354.65C642.226 353.697 642.967 352.963 643.905 352.45C644.844 351.937 645.893 351.68 647.051 351.68C648.21 351.68 649.259 351.937 650.197 352.45C651.136 352.963 651.877 353.697 652.419 354.65C652.962 355.603 653.233 356.696 653.233 357.928C653.233 359.16 652.955 360.253 652.397 361.206C651.84 362.159 651.077 362.9 650.109 363.428C649.156 363.941 648.1 364.198 646.941 364.198ZM646.941 362.02C647.587 362.02 648.188 361.866 648.745 361.558C649.317 361.25 649.779 360.788 650.131 360.172C650.483 359.556 650.659 358.808 650.659 357.928C650.659 357.048 650.491 356.307 650.153 355.706C649.816 355.09 649.369 354.628 648.811 354.32C648.254 354.012 647.653 353.858 647.007 353.858C646.362 353.858 645.761 354.012 645.203 354.32C644.661 354.628 644.228 355.09 643.905 355.706C643.583 356.307 643.421 357.048 643.421 357.928C643.421 359.233 643.751 360.245 644.411 360.964C645.086 361.668 645.929 362.02 646.941 362.02ZM658.221 347.72V364H655.713V347.72H658.221ZM666.771 364.198C665.627 364.198 664.593 363.941 663.669 363.428C662.745 362.9 662.019 362.167 661.491 361.228C660.963 360.275 660.699 359.175 660.699 357.928C660.699 356.696 660.971 355.603 661.513 354.65C662.056 353.697 662.797 352.963 663.735 352.45C664.674 351.937 665.723 351.68 666.881 351.68C668.04 351.68 669.089 351.937 670.027 352.45C670.966 352.963 671.707 353.697 672.249 354.65C672.792 355.603 673.063 356.696 673.063 357.928C673.063 359.16 672.785 360.253 672.227 361.206C671.67 362.159 670.907 362.9 669.939 363.428C668.986 363.941 667.93 364.198 666.771 364.198ZM666.771 362.02C667.417 362.02 668.018 361.866 668.575 361.558C669.147 361.25 669.609 360.788 669.961 360.172C670.313 359.556 670.489 358.808 670.489 357.928C670.489 357.048 670.321 356.307 669.983 355.706C669.646 355.09 669.199 354.628 668.641 354.32C668.084 354.012 667.483 353.858 666.837 353.858C666.192 353.858 665.591 354.012 665.033 354.32C664.491 354.628 664.058 355.09 663.735 355.706C663.413 356.307 663.251 357.048 663.251 357.928C663.251 359.233 663.581 360.245 664.241 360.964C664.916 361.668 665.759 362.02 666.771 362.02ZM678.051 353.638C678.417 353.022 678.901 352.545 679.503 352.208C680.119 351.856 680.845 351.68 681.681 351.68V354.276H681.043C680.06 354.276 679.312 354.525 678.799 355.024C678.3 355.523 678.051 356.388 678.051 357.62V364H675.543V351.878H678.051V353.638ZM684.998 364.154C684.543 364.154 684.162 364 683.854 363.692C683.546 363.384 683.392 363.003 683.392 362.548C683.392 362.093 683.546 361.712 683.854 361.404C684.162 361.096 684.543 360.942 684.998 360.942C685.438 360.942 685.812 361.096 686.12 361.404C686.428 361.712 686.582 362.093 686.582 362.548C686.582 363.003 686.428 363.384 686.12 363.692C685.812 364 685.438 364.154 684.998 364.154ZM691.801 353.66C692.226 353.103 692.805 352.633 693.539 352.252C694.272 351.871 695.101 351.68 696.025 351.68C697.081 351.68 698.041 351.944 698.907 352.472C699.787 352.985 700.476 353.711 700.975 354.65C701.473 355.589 701.723 356.667 701.723 357.884C701.723 359.101 701.473 360.194 700.975 361.162C700.476 362.115 699.787 362.863 698.907 363.406C698.041 363.934 697.081 364.198 696.025 364.198C695.101 364.198 694.279 364.015 693.561 363.648C692.842 363.267 692.255 362.797 691.801 362.24V369.764H689.293V351.878H691.801V353.66ZM699.171 357.884C699.171 357.048 698.995 356.329 698.643 355.728C698.305 355.112 697.851 354.65 697.279 354.342C696.721 354.019 696.12 353.858 695.475 353.858C694.844 353.858 694.243 354.019 693.671 354.342C693.113 354.665 692.659 355.134 692.307 355.75C691.969 356.366 691.801 357.092 691.801 357.928C691.801 358.764 691.969 359.497 692.307 360.128C692.659 360.744 693.113 361.213 693.671 361.536C694.243 361.859 694.844 362.02 695.475 362.02C696.12 362.02 696.721 361.859 697.279 361.536C697.851 361.199 698.305 360.715 698.643 360.084C698.995 359.453 699.171 358.72 699.171 357.884ZM706.711 353.638C707.077 353.022 707.561 352.545 708.163 352.208C708.779 351.856 709.505 351.68 710.341 351.68V354.276H709.703C708.72 354.276 707.972 354.525 707.459 355.024C706.96 355.523 706.711 356.388 706.711 357.62V364H704.203V351.878H706.711V353.638ZM713.922 350.272C713.467 350.272 713.086 350.118 712.778 349.81C712.47 349.502 712.316 349.121 712.316 348.666C712.316 348.211 712.47 347.83 712.778 347.522C713.086 347.214 713.467 347.06 713.922 347.06C714.362 347.06 714.736 347.214 715.044 347.522C715.352 347.83 715.506 348.211 715.506 348.666C715.506 349.121 715.352 349.502 715.044 349.81C714.736 350.118 714.362 350.272 713.922 350.272ZM715.154 351.878V364H712.646V351.878H715.154ZM733.121 351.68C734.074 351.68 734.925 351.878 735.673 352.274C736.436 352.67 737.03 353.257 737.455 354.034C737.895 354.811 738.115 355.75 738.115 356.85V364H735.629V357.224C735.629 356.139 735.358 355.31 734.815 354.738C734.272 354.151 733.532 353.858 732.593 353.858C731.654 353.858 730.906 354.151 730.349 354.738C729.806 355.31 729.535 356.139 729.535 357.224V364H727.049V357.224C727.049 356.139 726.778 355.31 726.235 354.738C725.692 354.151 724.952 353.858 724.013 353.858C723.074 353.858 722.326 354.151 721.769 354.738C721.226 355.31 720.955 356.139 720.955 357.224V364H718.447V351.878H720.955V353.264C721.366 352.765 721.886 352.377 722.517 352.098C723.148 351.819 723.822 351.68 724.541 351.68C725.509 351.68 726.374 351.885 727.137 352.296C727.9 352.707 728.486 353.301 728.897 354.078C729.264 353.345 729.836 352.765 730.613 352.34C731.39 351.9 732.226 351.68 733.121 351.68ZM740.47 357.884C740.47 356.667 740.72 355.589 741.218 354.65C741.732 353.711 742.421 352.985 743.286 352.472C744.166 351.944 745.134 351.68 746.19 351.68C747.144 351.68 747.972 351.871 748.676 352.252C749.395 352.619 749.967 353.081 750.392 353.638V351.878H752.922V364H750.392V362.196C749.967 362.768 749.388 363.245 748.654 363.626C747.921 364.007 747.085 364.198 746.146 364.198C745.105 364.198 744.152 363.934 743.286 363.406C742.421 362.863 741.732 362.115 741.218 361.162C740.72 360.194 740.47 359.101 740.47 357.884ZM750.392 357.928C750.392 357.092 750.216 356.366 749.864 355.75C749.527 355.134 749.08 354.665 748.522 354.342C747.965 354.019 747.364 353.858 746.718 353.858C746.073 353.858 745.472 354.019 744.914 354.342C744.357 354.65 743.902 355.112 743.55 355.728C743.213 356.329 743.044 357.048 743.044 357.884C743.044 358.72 743.213 359.453 743.55 360.084C743.902 360.715 744.357 361.199 744.914 361.536C745.486 361.859 746.088 362.02 746.718 362.02C747.364 362.02 747.965 361.859 748.522 361.536C749.08 361.213 749.527 360.744 749.864 360.128C750.216 359.497 750.392 358.764 750.392 357.928ZM758.724 353.638C759.091 353.022 759.575 352.545 760.176 352.208C760.792 351.856 761.518 351.68 762.354 351.68V354.276H761.716C760.734 354.276 759.986 354.525 759.472 355.024C758.974 355.523 758.724 356.388 758.724 357.62V364H756.216V351.878H758.724V353.638ZM775.572 351.878L768.136 369.698H765.54L768.004 363.802L763.23 351.878H766.024L769.434 361.118L772.976 351.878H775.572ZM778.476 364.154C778.022 364.154 777.64 364 777.332 363.692C777.024 363.384 776.87 363.003 776.87 362.548C776.87 362.093 777.024 361.712 777.332 361.404C777.64 361.096 778.022 360.942 778.476 360.942C778.916 360.942 779.29 361.096 779.598 361.404C779.906 361.712 780.06 362.093 780.06 362.548C780.06 363.003 779.906 363.384 779.598 363.692C779.29 364 778.916 364.154 778.476 364.154ZM782.111 350.25V347.962H786.687V364H784.157V350.25H782.111ZM790.133 355.772C790.133 353.235 790.558 351.255 791.409 349.832C792.274 348.395 793.755 347.676 795.853 347.676C797.95 347.676 799.424 348.395 800.275 349.832C801.14 351.255 801.573 353.235 801.573 355.772C801.573 358.339 801.14 360.348 800.275 361.8C799.424 363.237 797.95 363.956 795.853 363.956C793.755 363.956 792.274 363.237 791.409 361.8C790.558 360.348 790.133 358.339 790.133 355.772ZM799.109 355.772C799.109 354.584 799.028 353.579 798.867 352.758C798.72 351.937 798.412 351.269 797.943 350.756C797.473 350.228 796.777 349.964 795.853 349.964C794.929 349.964 794.232 350.228 793.763 350.756C793.293 351.269 792.978 351.937 792.817 352.758C792.67 353.579 792.597 354.584 792.597 355.772C792.597 357.004 792.67 358.038 792.817 358.874C792.963 359.71 793.271 360.385 793.741 360.898C794.225 361.411 794.929 361.668 795.853 361.668C796.777 361.668 797.473 361.411 797.943 360.898C798.427 360.385 798.742 359.71 798.889 358.874C799.035 358.038 799.109 357.004 799.109 355.772ZM804.226 355.772C804.226 353.235 804.652 351.255 805.502 349.832C806.368 348.395 807.849 347.676 809.946 347.676C812.044 347.676 813.518 348.395 814.368 349.832C815.234 351.255 815.666 353.235 815.666 355.772C815.666 358.339 815.234 360.348 814.368 361.8C813.518 363.237 812.044 363.956 809.946 363.956C807.849 363.956 806.368 363.237 805.502 361.8C804.652 360.348 804.226 358.339 804.226 355.772ZM813.202 355.772C813.202 354.584 813.122 353.579 812.96 352.758C812.814 351.937 812.506 351.269 812.036 350.756C811.567 350.228 810.87 349.964 809.946 349.964C809.022 349.964 808.326 350.228 807.856 350.756C807.387 351.269 807.072 351.937 806.91 352.758C806.764 353.579 806.69 354.584 806.69 355.772C806.69 357.004 806.764 358.038 806.91 358.874C807.057 359.71 807.365 360.385 807.834 360.898C808.318 361.411 809.022 361.668 809.946 361.668C810.87 361.668 811.567 361.411 812.036 360.898C812.52 360.385 812.836 359.71 812.982 358.874C813.129 358.038 813.202 357.004 813.202 355.772Z" fill="#404040"/>
<circle cx="608.5" cy="286.5" r="12.5" fill="#AF071F"/>
<path d="M627.185 287.928C627.185 286.681 627.434 285.589 627.933 284.65C628.446 283.697 629.15 282.963 630.045 282.45C630.94 281.937 631.966 281.68 633.125 281.68C634.592 281.68 635.802 282.032 636.755 282.736C637.723 283.425 638.376 284.415 638.713 285.706H636.007C635.787 285.105 635.435 284.635 634.951 284.298C634.467 283.961 633.858 283.792 633.125 283.792C632.098 283.792 631.277 284.159 630.661 284.892C630.06 285.611 629.759 286.623 629.759 287.928C629.759 289.233 630.06 290.253 630.661 290.986C631.277 291.719 632.098 292.086 633.125 292.086C634.577 292.086 635.538 291.448 636.007 290.172H638.713C638.361 291.404 637.701 292.387 636.733 293.12C635.765 293.839 634.562 294.198 633.125 294.198C631.966 294.198 630.94 293.941 630.045 293.428C629.15 292.9 628.446 292.167 627.933 291.228C627.434 290.275 627.185 289.175 627.185 287.928ZM646.471 294.198C645.327 294.198 644.293 293.941 643.369 293.428C642.445 292.9 641.719 292.167 641.191 291.228C640.663 290.275 640.399 289.175 640.399 287.928C640.399 286.696 640.67 285.603 641.213 284.65C641.755 283.697 642.496 282.963 643.435 282.45C644.373 281.937 645.422 281.68 646.581 281.68C647.739 281.68 648.788 281.937 649.727 282.45C650.665 282.963 651.406 283.697 651.949 284.65C652.491 285.603 652.763 286.696 652.763 287.928C652.763 289.16 652.484 290.253 651.927 291.206C651.369 292.159 650.607 292.9 649.639 293.428C648.685 293.941 647.629 294.198 646.471 294.198ZM646.471 292.02C647.116 292.02 647.717 291.866 648.275 291.558C648.847 291.25 649.309 290.788 649.661 290.172C650.013 289.556 650.189 288.808 650.189 287.928C650.189 287.048 650.02 286.307 649.683 285.706C649.345 285.09 648.898 284.628 648.341 284.32C647.783 284.012 647.182 283.858 646.537 283.858C645.891 283.858 645.29 284.012 644.733 284.32C644.19 284.628 643.757 285.09 643.435 285.706C643.112 286.307 642.951 287.048 642.951 287.928C642.951 289.233 643.281 290.245 643.941 290.964C644.615 291.668 645.459 292.02 646.471 292.02ZM657.75 277.72V294H655.242V277.72H657.75ZM666.301 294.198C665.157 294.198 664.123 293.941 663.199 293.428C662.275 292.9 661.549 292.167 661.021 291.228C660.493 290.275 660.229 289.175 660.229 287.928C660.229 286.696 660.5 285.603 661.043 284.65C661.585 283.697 662.326 282.963 663.265 282.45C664.203 281.937 665.252 281.68 666.411 281.68C667.569 281.68 668.618 281.937 669.557 282.45C670.495 282.963 671.236 283.697 671.779 284.65C672.321 285.603 672.593 286.696 672.593 287.928C672.593 289.16 672.314 290.253 671.757 291.206C671.199 292.159 670.437 292.9 669.469 293.428C668.515 293.941 667.459 294.198 666.301 294.198ZM666.301 292.02C666.946 292.02 667.547 291.866 668.105 291.558C668.677 291.25 669.139 290.788 669.491 290.172C669.843 289.556 670.019 288.808 670.019 287.928C670.019 287.048 669.85 286.307 669.513 285.706C669.175 285.09 668.728 284.628 668.171 284.32C667.613 284.012 667.012 283.858 666.367 283.858C665.721 283.858 665.12 284.012 664.563 284.32C664.02 284.628 663.587 285.09 663.265 285.706C662.942 286.307 662.781 287.048 662.781 287.928C662.781 289.233 663.111 290.245 663.771 290.964C664.445 291.668 665.289 292.02 666.301 292.02ZM677.58 283.638C677.947 283.022 678.431 282.545 679.032 282.208C679.648 281.856 680.374 281.68 681.21 281.68V284.276H680.572C679.589 284.276 678.841 284.525 678.328 285.024C677.829 285.523 677.58 286.388 677.58 287.62V294H675.072V281.878H677.58V283.638ZM684.527 294.154C684.073 294.154 683.691 294 683.383 293.692C683.075 293.384 682.921 293.003 682.921 292.548C682.921 292.093 683.075 291.712 683.383 291.404C683.691 291.096 684.073 290.942 684.527 290.942C684.967 290.942 685.341 291.096 685.649 291.404C685.957 291.712 686.111 292.093 686.111 292.548C686.111 293.003 685.957 293.384 685.649 293.692C685.341 294 684.967 294.154 684.527 294.154ZM691.33 283.682C691.755 283.095 692.335 282.619 693.068 282.252C693.816 281.871 694.645 281.68 695.554 281.68C696.625 281.68 697.593 281.937 698.458 282.45C699.323 282.963 700.005 283.697 700.504 284.65C701.003 285.589 701.252 286.667 701.252 287.884C701.252 289.101 701.003 290.194 700.504 291.162C700.005 292.115 699.316 292.863 698.436 293.406C697.571 293.934 696.61 294.198 695.554 294.198C694.615 294.198 693.779 294.015 693.046 293.648C692.327 293.281 691.755 292.812 691.33 292.24V294H688.822V277.72H691.33V283.682ZM698.7 287.884C698.7 287.048 698.524 286.329 698.172 285.728C697.835 285.112 697.38 284.65 696.808 284.342C696.251 284.019 695.649 283.858 695.004 283.858C694.373 283.858 693.772 284.019 693.2 284.342C692.643 284.665 692.188 285.134 691.836 285.75C691.499 286.366 691.33 287.092 691.33 287.928C691.33 288.764 691.499 289.497 691.836 290.128C692.188 290.744 692.643 291.213 693.2 291.536C693.772 291.859 694.373 292.02 695.004 292.02C695.649 292.02 696.251 291.859 696.808 291.536C697.38 291.199 697.835 290.715 698.172 290.084C698.524 289.453 698.7 288.72 698.7 287.884ZM702.896 287.884C702.896 286.667 703.145 285.589 703.644 284.65C704.157 283.711 704.847 282.985 705.712 282.472C706.592 281.944 707.56 281.68 708.616 281.68C709.569 281.68 710.398 281.871 711.102 282.252C711.821 282.619 712.393 283.081 712.818 283.638V281.878H715.348V294H712.818V292.196C712.393 292.768 711.813 293.245 711.08 293.626C710.347 294.007 709.511 294.198 708.572 294.198C707.531 294.198 706.577 293.934 705.712 293.406C704.847 292.863 704.157 292.115 703.644 291.162C703.145 290.194 702.896 289.101 702.896 287.884ZM712.818 287.928C712.818 287.092 712.642 286.366 712.29 285.75C711.953 285.134 711.505 284.665 710.948 284.342C710.391 284.019 709.789 283.858 709.144 283.858C708.499 283.858 707.897 284.019 707.34 284.342C706.783 284.65 706.328 285.112 705.976 285.728C705.639 286.329 705.47 287.048 705.47 287.884C705.47 288.72 705.639 289.453 705.976 290.084C706.328 290.715 706.783 291.199 707.34 291.536C707.912 291.859 708.513 292.02 709.144 292.02C709.789 292.02 710.391 291.859 710.948 291.536C711.505 291.213 711.953 290.744 712.29 290.128C712.642 289.497 712.818 288.764 712.818 287.928ZM717.806 287.928C717.806 286.681 718.056 285.589 718.554 284.65C719.068 283.697 719.772 282.963 720.666 282.45C721.561 281.937 722.588 281.68 723.746 281.68C725.213 281.68 726.423 282.032 727.376 282.736C728.344 283.425 728.997 284.415 729.334 285.706H726.628C726.408 285.105 726.056 284.635 725.572 284.298C725.088 283.961 724.48 283.792 723.746 283.792C722.72 283.792 721.898 284.159 721.282 284.892C720.681 285.611 720.38 286.623 720.38 287.928C720.38 289.233 720.681 290.253 721.282 290.986C721.898 291.719 722.72 292.086 723.746 292.086C725.198 292.086 726.159 291.448 726.628 290.172H729.334C728.982 291.404 728.322 292.387 727.354 293.12C726.386 293.839 725.184 294.198 723.746 294.198C722.588 294.198 721.561 293.941 720.666 293.428C719.772 292.9 719.068 292.167 718.554 291.228C718.056 290.275 717.806 289.175 717.806 287.928ZM736.63 287.95L742.218 294H738.83L734.342 288.786V294H731.834V277.72H734.342V287.18L738.742 281.878H742.218L736.63 287.95ZM748.899 281.68C749.838 281.68 750.667 281.871 751.385 282.252C752.119 282.619 752.691 283.081 753.101 283.638V281.878H755.631V294.198C755.631 295.313 755.397 296.303 754.927 297.168C754.458 298.048 753.776 298.737 752.881 299.236C752.001 299.735 750.945 299.984 749.713 299.984C748.071 299.984 746.707 299.595 745.621 298.818C744.536 298.055 743.92 297.014 743.773 295.694H746.259C746.45 296.325 746.853 296.831 747.469 297.212C748.1 297.608 748.848 297.806 749.713 297.806C750.725 297.806 751.539 297.498 752.155 296.882C752.786 296.266 753.101 295.371 753.101 294.198V292.174C752.676 292.746 752.097 293.23 751.363 293.626C750.645 294.007 749.823 294.198 748.899 294.198C747.843 294.198 746.875 293.934 745.995 293.406C745.13 292.863 744.441 292.115 743.927 291.162C743.429 290.194 743.179 289.101 743.179 287.884C743.179 286.667 743.429 285.589 743.927 284.65C744.441 283.711 745.13 282.985 745.995 282.472C746.875 281.944 747.843 281.68 748.899 281.68ZM753.101 287.928C753.101 287.092 752.925 286.366 752.573 285.75C752.236 285.134 751.789 284.665 751.231 284.342C750.674 284.019 750.073 283.858 749.427 283.858C748.782 283.858 748.181 284.019 747.623 284.342C747.066 284.65 746.611 285.112 746.259 285.728C745.922 286.329 745.753 287.048 745.753 287.884C745.753 288.72 745.922 289.453 746.259 290.084C746.611 290.715 747.066 291.199 747.623 291.536C748.195 291.859 748.797 292.02 749.427 292.02C750.073 292.02 750.674 291.859 751.231 291.536C751.789 291.213 752.236 290.744 752.573 290.128C752.925 289.497 753.101 288.764 753.101 287.928ZM761.433 283.638C761.8 283.022 762.284 282.545 762.885 282.208C763.501 281.856 764.227 281.68 765.063 281.68V284.276H764.425C763.443 284.276 762.695 284.525 762.181 285.024C761.683 285.523 761.433 286.388 761.433 287.62V294H758.925V281.878H761.433V283.638ZM772.627 294.198C771.483 294.198 770.449 293.941 769.525 293.428C768.601 292.9 767.875 292.167 767.347 291.228C766.819 290.275 766.555 289.175 766.555 287.928C766.555 286.696 766.826 285.603 767.369 284.65C767.911 283.697 768.652 282.963 769.591 282.45C770.529 281.937 771.578 281.68 772.737 281.68C773.895 281.68 774.944 281.937 775.883 282.45C776.821 282.963 777.562 283.697 778.105 284.65C778.647 285.603 778.919 286.696 778.919 287.928C778.919 289.16 778.64 290.253 778.083 291.206C777.525 292.159 776.763 292.9 775.795 293.428C774.841 293.941 773.785 294.198 772.627 294.198ZM772.627 292.02C773.272 292.02 773.873 291.866 774.431 291.558C775.003 291.25 775.465 290.788 775.817 290.172C776.169 289.556 776.345 288.808 776.345 287.928C776.345 287.048 776.176 286.307 775.839 285.706C775.501 285.09 775.054 284.628 774.497 284.32C773.939 284.012 773.338 283.858 772.693 283.858C772.047 283.858 771.446 284.012 770.889 284.32C770.346 284.628 769.913 285.09 769.591 285.706C769.268 286.307 769.107 287.048 769.107 287.928C769.107 289.233 769.437 290.245 770.097 290.964C770.771 291.668 771.615 292.02 772.627 292.02ZM792.376 281.878V294H789.868V292.57C789.472 293.069 788.951 293.465 788.306 293.758C787.675 294.037 787.001 294.176 786.282 294.176C785.329 294.176 784.471 293.978 783.708 293.582C782.96 293.186 782.366 292.599 781.926 291.822C781.501 291.045 781.288 290.106 781.288 289.006V281.878H783.774V288.632C783.774 289.717 784.045 290.553 784.588 291.14C785.131 291.712 785.871 291.998 786.81 291.998C787.749 291.998 788.489 291.712 789.032 291.14C789.589 290.553 789.868 289.717 789.868 288.632V281.878H792.376ZM801.801 281.68C802.754 281.68 803.605 281.878 804.353 282.274C805.116 282.67 805.71 283.257 806.135 284.034C806.56 284.811 806.773 285.75 806.773 286.85V294H804.287V287.224C804.287 286.139 804.016 285.31 803.473 284.738C802.93 284.151 802.19 283.858 801.251 283.858C800.312 283.858 799.564 284.151 799.007 284.738C798.464 285.31 798.193 286.139 798.193 287.224V294H795.685V281.878H798.193V283.264C798.604 282.765 799.124 282.377 799.755 282.098C800.4 281.819 801.082 281.68 801.801 281.68ZM809.136 287.884C809.136 286.667 809.386 285.589 809.884 284.65C810.398 283.711 811.087 282.985 811.952 282.472C812.832 281.944 813.808 281.68 814.878 281.68C815.67 281.68 816.448 281.856 817.21 282.208C817.988 282.545 818.604 283 819.058 283.572V277.72H821.588V294H819.058V292.174C818.648 292.761 818.076 293.245 817.342 293.626C816.624 294.007 815.795 294.198 814.856 294.198C813.8 294.198 812.832 293.934 811.952 293.406C811.087 292.863 810.398 292.115 809.884 291.162C809.386 290.194 809.136 289.101 809.136 287.884ZM819.058 287.928C819.058 287.092 818.882 286.366 818.53 285.75C818.193 285.134 817.746 284.665 817.188 284.342C816.631 284.019 816.03 283.858 815.384 283.858C814.739 283.858 814.138 284.019 813.58 284.342C813.023 284.65 812.568 285.112 812.216 285.728C811.879 286.329 811.71 287.048 811.71 287.884C811.71 288.72 811.879 289.453 812.216 290.084C812.568 290.715 813.023 291.199 813.58 291.536C814.152 291.859 814.754 292.02 815.384 292.02C816.03 292.02 816.631 291.859 817.188 291.536C817.746 291.213 818.193 290.744 818.53 290.128C818.882 289.497 819.058 288.764 819.058 287.928ZM825.894 294.154C825.44 294.154 825.058 294 824.75 293.692C824.442 293.384 824.288 293.003 824.288 292.548C824.288 292.093 824.442 291.712 824.75 291.404C825.058 291.096 825.44 290.942 825.894 290.942C826.334 290.942 826.708 291.096 827.016 291.404C827.324 291.712 827.478 292.093 827.478 292.548C827.478 293.003 827.324 293.384 827.016 293.692C826.708 294 826.334 294.154 825.894 294.154ZM832.697 283.682C833.122 283.095 833.702 282.619 834.435 282.252C835.183 281.871 836.012 281.68 836.921 281.68C837.992 281.68 838.96 281.937 839.825 282.45C840.69 282.963 841.372 283.697 841.871 284.65C842.37 285.589 842.619 286.667 842.619 287.884C842.619 289.101 842.37 290.194 841.871 291.162C841.372 292.115 840.683 292.863 839.803 293.406C838.938 293.934 837.977 294.198 836.921 294.198C835.982 294.198 835.146 294.015 834.413 293.648C833.694 293.281 833.122 292.812 832.697 292.24V294H830.189V277.72H832.697V283.682ZM840.067 287.884C840.067 287.048 839.891 286.329 839.539 285.728C839.202 285.112 838.747 284.65 838.175 284.342C837.618 284.019 837.016 283.858 836.371 283.858C835.74 283.858 835.139 284.019 834.567 284.342C834.01 284.665 833.555 285.134 833.203 285.75C832.866 286.366 832.697 287.092 832.697 287.928C832.697 288.764 832.866 289.497 833.203 290.128C833.555 290.744 834.01 291.213 834.567 291.536C835.139 291.859 835.74 292.02 836.371 292.02C837.016 292.02 837.618 291.859 838.175 291.536C838.747 291.199 839.202 290.715 839.539 290.084C839.891 289.453 840.067 288.72 840.067 287.884ZM847.607 283.638C847.974 283.022 848.458 282.545 849.059 282.208C849.675 281.856 850.401 281.68 851.237 281.68V284.276H850.599C849.617 284.276 848.869 284.525 848.355 285.024C847.857 285.523 847.607 286.388 847.607 287.62V294H845.099V281.878H847.607V283.638ZM852.707 287.884C852.707 286.667 852.956 285.589 853.455 284.65C853.968 283.711 854.657 282.985 855.523 282.472C856.403 281.944 857.371 281.68 858.427 281.68C859.38 281.68 860.209 281.871 860.913 282.252C861.631 282.619 862.203 283.081 862.629 283.638V281.878H865.159V294H862.629V292.196C862.203 292.768 861.624 293.245 860.891 293.626C860.157 294.007 859.321 294.198 858.383 294.198C857.341 294.198 856.388 293.934 855.523 293.406C854.657 292.863 853.968 292.115 853.455 291.162C852.956 290.194 852.707 289.101 852.707 287.884ZM862.629 287.928C862.629 287.092 862.453 286.366 862.101 285.75C861.763 285.134 861.316 284.665 860.759 284.342C860.201 284.019 859.6 283.858 858.955 283.858C858.309 283.858 857.708 284.019 857.151 284.342C856.593 284.65 856.139 285.112 855.787 285.728C855.449 286.329 855.281 287.048 855.281 287.884C855.281 288.72 855.449 289.453 855.787 290.084C856.139 290.715 856.593 291.199 857.151 291.536C857.723 291.859 858.324 292.02 858.955 292.02C859.6 292.02 860.201 291.859 860.759 291.536C861.316 291.213 861.763 290.744 862.101 290.128C862.453 289.497 862.629 288.764 862.629 287.928ZM874.569 281.68C875.522 281.68 876.373 281.878 877.121 282.274C877.883 282.67 878.477 283.257 878.903 284.034C879.328 284.811 879.541 285.75 879.541 286.85V294H877.055V287.224C877.055 286.139 876.783 285.31 876.241 284.738C875.698 284.151 874.957 283.858 874.019 283.858C873.08 283.858 872.332 284.151 871.775 284.738C871.232 285.31 870.961 286.139 870.961 287.224V294H868.453V281.878H870.961V283.264C871.371 282.765 871.892 282.377 872.523 282.098C873.168 281.819 873.85 281.68 874.569 281.68ZM881.904 287.884C881.904 286.667 882.153 285.589 882.652 284.65C883.165 283.711 883.855 282.985 884.72 282.472C885.6 281.944 886.575 281.68 887.646 281.68C888.438 281.68 889.215 281.856 889.978 282.208C890.755 282.545 891.371 283 891.826 283.572V277.72H894.356V294H891.826V292.174C891.415 292.761 890.843 293.245 890.11 293.626C889.391 294.007 888.563 294.198 887.624 294.198C886.568 294.198 885.6 293.934 884.72 293.406C883.855 292.863 883.165 292.115 882.652 291.162C882.153 290.194 881.904 289.101 881.904 287.884ZM891.826 287.928C891.826 287.092 891.65 286.366 891.298 285.75C890.961 285.134 890.513 284.665 889.956 284.342C889.399 284.019 888.797 283.858 888.152 283.858C887.507 283.858 886.905 284.019 886.348 284.342C885.791 284.65 885.336 285.112 884.984 285.728C884.647 286.329 884.478 287.048 884.478 287.884C884.478 288.72 884.647 289.453 884.984 290.084C885.336 290.715 885.791 291.199 886.348 291.536C886.92 291.859 887.521 292.02 888.152 292.02C888.797 292.02 889.399 291.859 889.956 291.536C890.513 291.213 890.961 290.744 891.298 290.128C891.65 289.497 891.826 288.764 891.826 287.928Z" fill="#404040"/>
<circle cx="608.5" cy="211.5" r="12.5" fill="#AF071F"/>
<path d="M631.144 208.682C631.57 208.095 632.149 207.619 632.882 207.252C633.63 206.871 634.459 206.68 635.368 206.68C636.439 206.68 637.407 206.937 638.272 207.45C639.138 207.963 639.82 208.697 640.318 209.65C640.817 210.589 641.066 211.667 641.066 212.884C641.066 214.101 640.817 215.194 640.318 216.162C639.82 217.115 639.13 217.863 638.25 218.406C637.385 218.934 636.424 219.198 635.368 219.198C634.43 219.198 633.594 219.015 632.86 218.648C632.142 218.281 631.57 217.812 631.144 217.24V219H628.636V202.72H631.144V208.682ZM638.514 212.884C638.514 212.048 638.338 211.329 637.986 210.728C637.649 210.112 637.194 209.65 636.622 209.342C636.065 209.019 635.464 208.858 634.818 208.858C634.188 208.858 633.586 209.019 633.014 209.342C632.457 209.665 632.002 210.134 631.65 210.75C631.313 211.366 631.144 212.092 631.144 212.928C631.144 213.764 631.313 214.497 631.65 215.128C632.002 215.744 632.457 216.213 633.014 216.536C633.586 216.859 634.188 217.02 634.818 217.02C635.464 217.02 636.065 216.859 636.622 216.536C637.194 216.199 637.649 215.715 637.986 215.084C638.338 214.453 638.514 213.72 638.514 212.884ZM654.524 206.878V219H652.016V217.57C651.62 218.069 651.1 218.465 650.454 218.758C649.824 219.037 649.149 219.176 648.43 219.176C647.477 219.176 646.619 218.978 645.856 218.582C645.108 218.186 644.514 217.599 644.074 216.822C643.649 216.045 643.436 215.106 643.436 214.006V206.878H645.922V213.632C645.922 214.717 646.194 215.553 646.736 216.14C647.279 216.712 648.02 216.998 648.958 216.998C649.897 216.998 650.638 216.712 651.18 216.14C651.738 215.553 652.016 214.717 652.016 213.632V206.878H654.524ZM660.76 208.924V215.634C660.76 216.089 660.862 216.419 661.068 216.624C661.288 216.815 661.654 216.91 662.168 216.91H663.708V219H661.728C660.598 219 659.733 218.736 659.132 218.208C658.53 217.68 658.23 216.822 658.23 215.634V208.924H656.8V206.878H658.23V203.864H660.76V206.878H663.708V208.924H660.76ZM668.945 208.924V215.634C668.945 216.089 669.048 216.419 669.253 216.624C669.473 216.815 669.84 216.91 670.353 216.91H671.893V219H669.913C668.784 219 667.918 218.736 667.317 218.208C666.716 217.68 666.415 216.822 666.415 215.634V208.924H664.985V206.878H666.415V203.864H668.945V206.878H671.893V208.924H668.945ZM679.463 219.198C678.319 219.198 677.285 218.941 676.361 218.428C675.437 217.9 674.711 217.167 674.183 216.228C673.655 215.275 673.391 214.175 673.391 212.928C673.391 211.696 673.662 210.603 674.205 209.65C674.747 208.697 675.488 207.963 676.427 207.45C677.365 206.937 678.414 206.68 679.573 206.68C680.731 206.68 681.78 206.937 682.719 207.45C683.657 207.963 684.398 208.697 684.941 209.65C685.483 210.603 685.755 211.696 685.755 212.928C685.755 214.16 685.476 215.253 684.919 216.206C684.361 217.159 683.599 217.9 682.631 218.428C681.677 218.941 680.621 219.198 679.463 219.198ZM679.463 217.02C680.108 217.02 680.709 216.866 681.267 216.558C681.839 216.25 682.301 215.788 682.653 215.172C683.005 214.556 683.181 213.808 683.181 212.928C683.181 212.048 683.012 211.307 682.675 210.706C682.337 210.09 681.89 209.628 681.333 209.32C680.775 209.012 680.174 208.858 679.529 208.858C678.883 208.858 678.282 209.012 677.725 209.32C677.182 209.628 676.749 210.09 676.427 210.706C676.104 211.307 675.943 212.048 675.943 212.928C675.943 214.233 676.273 215.245 676.933 215.964C677.607 216.668 678.451 217.02 679.463 217.02ZM694.35 206.68C695.303 206.68 696.154 206.878 696.902 207.274C697.665 207.67 698.259 208.257 698.684 209.034C699.109 209.811 699.322 210.75 699.322 211.85V219H696.836V212.224C696.836 211.139 696.565 210.31 696.022 209.738C695.479 209.151 694.739 208.858 693.8 208.858C692.861 208.858 692.113 209.151 691.556 209.738C691.013 210.31 690.742 211.139 690.742 212.224V219H688.234V206.878H690.742V208.264C691.153 207.765 691.673 207.377 692.304 207.098C692.949 206.819 693.631 206.68 694.35 206.68ZM703.533 219.154C703.078 219.154 702.697 219 702.389 218.692C702.081 218.384 701.927 218.003 701.927 217.548C701.927 217.093 702.081 216.712 702.389 216.404C702.697 216.096 703.078 215.942 703.533 215.942C703.973 215.942 704.347 216.096 704.655 216.404C704.963 216.712 705.117 217.093 705.117 217.548C705.117 218.003 704.963 218.384 704.655 218.692C704.347 219 703.973 219.154 703.533 219.154ZM710.336 208.66C710.761 208.103 711.34 207.633 712.074 207.252C712.807 206.871 713.636 206.68 714.56 206.68C715.616 206.68 716.576 206.944 717.442 207.472C718.322 207.985 719.011 208.711 719.51 209.65C720.008 210.589 720.258 211.667 720.258 212.884C720.258 214.101 720.008 215.194 719.51 216.162C719.011 217.115 718.322 217.863 717.442 218.406C716.576 218.934 715.616 219.198 714.56 219.198C713.636 219.198 712.814 219.015 712.096 218.648C711.377 218.267 710.79 217.797 710.336 217.24V224.764H707.828V206.878H710.336V208.66ZM717.706 212.884C717.706 212.048 717.53 211.329 717.178 210.728C716.84 210.112 716.386 209.65 715.814 209.342C715.256 209.019 714.655 208.858 714.01 208.858C713.379 208.858 712.778 209.019 712.206 209.342C711.648 209.665 711.194 210.134 710.842 210.75C710.504 211.366 710.336 212.092 710.336 212.928C710.336 213.764 710.504 214.497 710.842 215.128C711.194 215.744 711.648 216.213 712.206 216.536C712.778 216.859 713.379 217.02 714.01 217.02C714.655 217.02 715.256 216.859 715.814 216.536C716.386 216.199 716.84 215.715 717.178 215.084C717.53 214.453 717.706 213.72 717.706 212.884ZM725.246 208.638C725.613 208.022 726.097 207.545 726.698 207.208C727.314 206.856 728.04 206.68 728.876 206.68V209.276H728.238C727.255 209.276 726.507 209.525 725.994 210.024C725.495 210.523 725.246 211.388 725.246 212.62V219H722.738V206.878H725.246V208.638ZM732.457 205.272C732.003 205.272 731.621 205.118 731.313 204.81C731.005 204.502 730.851 204.121 730.851 203.666C730.851 203.211 731.005 202.83 731.313 202.522C731.621 202.214 732.003 202.06 732.457 202.06C732.897 202.06 733.271 202.214 733.579 202.522C733.887 202.83 734.041 203.211 734.041 203.666C734.041 204.121 733.887 204.502 733.579 204.81C733.271 205.118 732.897 205.272 732.457 205.272ZM733.689 206.878V219H731.181V206.878H733.689ZM751.656 206.68C752.609 206.68 753.46 206.878 754.208 207.274C754.971 207.67 755.565 208.257 755.99 209.034C756.43 209.811 756.65 210.75 756.65 211.85V219H754.164V212.224C754.164 211.139 753.893 210.31 753.35 209.738C752.807 209.151 752.067 208.858 751.128 208.858C750.189 208.858 749.441 209.151 748.884 209.738C748.341 210.31 748.07 211.139 748.07 212.224V219H745.584V212.224C745.584 211.139 745.313 210.31 744.77 209.738C744.227 209.151 743.487 208.858 742.548 208.858C741.609 208.858 740.861 209.151 740.304 209.738C739.761 210.31 739.49 211.139 739.49 212.224V219H736.982V206.878H739.49V208.264C739.901 207.765 740.421 207.377 741.052 207.098C741.683 206.819 742.357 206.68 743.076 206.68C744.044 206.68 744.909 206.885 745.672 207.296C746.435 207.707 747.021 208.301 747.432 209.078C747.799 208.345 748.371 207.765 749.148 207.34C749.925 206.9 750.761 206.68 751.656 206.68ZM759.005 212.884C759.005 211.667 759.255 210.589 759.753 209.65C760.267 208.711 760.956 207.985 761.821 207.472C762.701 206.944 763.669 206.68 764.725 206.68C765.679 206.68 766.507 206.871 767.211 207.252C767.93 207.619 768.502 208.081 768.927 208.638V206.878H771.457V219H768.927V217.196C768.502 217.768 767.923 218.245 767.189 218.626C766.456 219.007 765.62 219.198 764.681 219.198C763.64 219.198 762.687 218.934 761.821 218.406C760.956 217.863 760.267 217.115 759.753 216.162C759.255 215.194 759.005 214.101 759.005 212.884ZM768.927 212.928C768.927 212.092 768.751 211.366 768.399 210.75C768.062 210.134 767.615 209.665 767.057 209.342C766.5 209.019 765.899 208.858 765.253 208.858C764.608 208.858 764.007 209.019 763.449 209.342C762.892 209.65 762.437 210.112 762.085 210.728C761.748 211.329 761.579 212.048 761.579 212.884C761.579 213.72 761.748 214.453 762.085 215.084C762.437 215.715 762.892 216.199 763.449 216.536C764.021 216.859 764.623 217.02 765.253 217.02C765.899 217.02 766.5 216.859 767.057 216.536C767.615 216.213 768.062 215.744 768.399 215.128C768.751 214.497 768.927 213.764 768.927 212.928ZM777.26 208.638C777.626 208.022 778.11 207.545 778.712 207.208C779.328 206.856 780.054 206.68 780.89 206.68V209.276H780.252C779.269 209.276 778.521 209.525 778.008 210.024C777.509 210.523 777.26 211.388 777.26 212.62V219H774.752V206.878H777.26V208.638ZM794.107 206.878L786.671 224.698H784.075L786.539 218.802L781.765 206.878H784.559L787.969 216.118L791.511 206.878H794.107ZM797.012 219.154C796.557 219.154 796.176 219 795.868 218.692C795.56 218.384 795.406 218.003 795.406 217.548C795.406 217.093 795.56 216.712 795.868 216.404C796.176 216.096 796.557 215.942 797.012 215.942C797.452 215.942 797.826 216.096 798.134 216.404C798.442 216.712 798.596 217.093 798.596 217.548C798.596 218.003 798.442 218.384 798.134 218.692C797.826 219 797.452 219.154 797.012 219.154ZM803.814 208.682C804.24 208.095 804.819 207.619 805.552 207.252C806.3 206.871 807.129 206.68 808.038 206.68C809.109 206.68 810.077 206.937 810.942 207.45C811.808 207.963 812.49 208.697 812.988 209.65C813.487 210.589 813.736 211.667 813.736 212.884C813.736 214.101 813.487 215.194 812.988 216.162C812.49 217.115 811.8 217.863 810.92 218.406C810.055 218.934 809.094 219.198 808.038 219.198C807.1 219.198 806.264 219.015 805.53 218.648C804.812 218.281 804.24 217.812 803.814 217.24V219H801.306V202.72H803.814V208.682ZM811.184 212.884C811.184 212.048 811.008 211.329 810.656 210.728C810.319 210.112 809.864 209.65 809.292 209.342C808.735 209.019 808.134 208.858 807.488 208.858C806.858 208.858 806.256 209.019 805.684 209.342C805.127 209.665 804.672 210.134 804.32 210.75C803.983 211.366 803.814 212.092 803.814 212.928C803.814 213.764 803.983 214.497 804.32 215.128C804.672 215.744 805.127 216.213 805.684 216.536C806.256 216.859 806.858 217.02 807.488 217.02C808.134 217.02 808.735 216.859 809.292 216.536C809.864 216.199 810.319 215.715 810.656 215.084C811.008 214.453 811.184 213.72 811.184 212.884ZM815.38 212.884C815.38 211.667 815.63 210.589 816.128 209.65C816.642 208.711 817.331 207.985 818.196 207.472C819.076 206.944 820.044 206.68 821.1 206.68C822.054 206.68 822.882 206.871 823.586 207.252C824.305 207.619 824.877 208.081 825.302 208.638V206.878H827.832V219H825.302V217.196C824.877 217.768 824.298 218.245 823.564 218.626C822.831 219.007 821.995 219.198 821.056 219.198C820.015 219.198 819.062 218.934 818.196 218.406C817.331 217.863 816.642 217.115 816.128 216.162C815.63 215.194 815.38 214.101 815.38 212.884ZM825.302 212.928C825.302 212.092 825.126 211.366 824.774 210.75C824.437 210.134 823.99 209.665 823.432 209.342C822.875 209.019 822.274 208.858 821.628 208.858C820.983 208.858 820.382 209.019 819.824 209.342C819.267 209.65 818.812 210.112 818.46 210.728C818.123 211.329 817.954 212.048 817.954 212.884C817.954 213.72 818.123 214.453 818.46 215.084C818.812 215.715 819.267 216.199 819.824 216.536C820.396 216.859 820.998 217.02 821.628 217.02C822.274 217.02 822.875 216.859 823.432 216.536C823.99 216.213 824.437 215.744 824.774 215.128C825.126 214.497 825.302 213.764 825.302 212.928ZM830.291 212.928C830.291 211.681 830.54 210.589 831.039 209.65C831.552 208.697 832.256 207.963 833.151 207.45C834.045 206.937 835.072 206.68 836.231 206.68C837.697 206.68 838.907 207.032 839.861 207.736C840.829 208.425 841.481 209.415 841.819 210.706H839.113C838.893 210.105 838.541 209.635 838.057 209.298C837.573 208.961 836.964 208.792 836.231 208.792C835.204 208.792 834.383 209.159 833.767 209.892C833.165 210.611 832.865 211.623 832.865 212.928C832.865 214.233 833.165 215.253 833.767 215.986C834.383 216.719 835.204 217.086 836.231 217.086C837.683 217.086 838.643 216.448 839.113 215.172H841.819C841.467 216.404 840.807 217.387 839.839 218.12C838.871 218.839 837.668 219.198 836.231 219.198C835.072 219.198 834.045 218.941 833.151 218.428C832.256 217.9 831.552 217.167 831.039 216.228C830.54 215.275 830.291 214.175 830.291 212.928ZM849.114 212.95L854.702 219H851.314L846.826 213.786V219H844.318V202.72H846.826V212.18L851.226 206.878H854.702L849.114 212.95ZM861.384 206.68C862.322 206.68 863.151 206.871 863.87 207.252C864.603 207.619 865.175 208.081 865.586 208.638V206.878H868.116V219.198C868.116 220.313 867.881 221.303 867.412 222.168C866.942 223.048 866.26 223.737 865.366 224.236C864.486 224.735 863.43 224.984 862.198 224.984C860.555 224.984 859.191 224.595 858.106 223.818C857.02 223.055 856.404 222.014 856.258 220.694H858.744C858.934 221.325 859.338 221.831 859.954 222.212C860.584 222.608 861.332 222.806 862.198 222.806C863.21 222.806 864.024 222.498 864.64 221.882C865.27 221.266 865.586 220.371 865.586 219.198V217.174C865.16 217.746 864.581 218.23 863.848 218.626C863.129 219.007 862.308 219.198 861.384 219.198C860.328 219.198 859.36 218.934 858.48 218.406C857.614 217.863 856.925 217.115 856.412 216.162C855.913 215.194 855.664 214.101 855.664 212.884C855.664 211.667 855.913 210.589 856.412 209.65C856.925 208.711 857.614 207.985 858.48 207.472C859.36 206.944 860.328 206.68 861.384 206.68ZM865.586 212.928C865.586 212.092 865.41 211.366 865.058 210.75C864.72 210.134 864.273 209.665 863.716 209.342C863.158 209.019 862.557 208.858 861.912 208.858C861.266 208.858 860.665 209.019 860.108 209.342C859.55 209.65 859.096 210.112 858.744 210.728C858.406 211.329 858.238 212.048 858.238 212.884C858.238 213.72 858.406 214.453 858.744 215.084C859.096 215.715 859.55 216.199 860.108 216.536C860.68 216.859 861.281 217.02 861.912 217.02C862.557 217.02 863.158 216.859 863.716 216.536C864.273 216.213 864.72 215.744 865.058 215.128C865.41 214.497 865.586 213.764 865.586 212.928ZM873.918 208.638C874.284 208.022 874.768 207.545 875.37 207.208C875.986 206.856 876.712 206.68 877.548 206.68V209.276H876.91C875.927 209.276 875.179 209.525 874.666 210.024C874.167 210.523 873.918 211.388 873.918 212.62V219H871.41V206.878H873.918V208.638ZM885.111 219.198C883.967 219.198 882.933 218.941 882.009 218.428C881.085 217.9 880.359 217.167 879.831 216.228C879.303 215.275 879.039 214.175 879.039 212.928C879.039 211.696 879.31 210.603 879.853 209.65C880.396 208.697 881.136 207.963 882.075 207.45C883.014 206.937 884.062 206.68 885.221 206.68C886.38 206.68 887.428 206.937 888.367 207.45C889.306 207.963 890.046 208.697 890.589 209.65C891.132 210.603 891.403 211.696 891.403 212.928C891.403 214.16 891.124 215.253 890.567 216.206C890.01 217.159 889.247 217.9 888.279 218.428C887.326 218.941 886.27 219.198 885.111 219.198ZM885.111 217.02C885.756 217.02 886.358 216.866 886.915 216.558C887.487 216.25 887.949 215.788 888.301 215.172C888.653 214.556 888.829 213.808 888.829 212.928C888.829 212.048 888.66 211.307 888.323 210.706C887.986 210.09 887.538 209.628 886.981 209.32C886.424 209.012 885.822 208.858 885.177 208.858C884.532 208.858 883.93 209.012 883.373 209.32C882.83 209.628 882.398 210.09 882.075 210.706C881.752 211.307 881.591 212.048 881.591 212.928C881.591 214.233 881.921 215.245 882.581 215.964C883.256 216.668 884.099 217.02 885.111 217.02ZM904.86 206.878V219H902.352V217.57C901.956 218.069 901.436 218.465 900.79 218.758C900.16 219.037 899.485 219.176 898.766 219.176C897.813 219.176 896.955 218.978 896.192 218.582C895.444 218.186 894.85 217.599 894.41 216.822C893.985 216.045 893.772 215.106 893.772 214.006V206.878H896.258V213.632C896.258 214.717 896.53 215.553 897.072 216.14C897.615 216.712 898.356 216.998 899.294 216.998C900.233 216.998 900.974 216.712 901.516 216.14C902.074 215.553 902.352 214.717 902.352 213.632V206.878H904.86ZM914.286 206.68C915.239 206.68 916.09 206.878 916.838 207.274C917.6 207.67 918.194 208.257 918.62 209.034C919.045 209.811 919.258 210.75 919.258 211.85V219H916.772V212.224C916.772 211.139 916.5 210.31 915.958 209.738C915.415 209.151 914.674 208.858 913.736 208.858C912.797 208.858 912.049 209.151 911.492 209.738C910.949 210.31 910.678 211.139 910.678 212.224V219H908.17V206.878H910.678V208.264C911.088 207.765 911.609 207.377 912.24 207.098C912.885 206.819 913.567 206.68 914.286 206.68ZM921.621 212.884C921.621 211.667 921.87 210.589 922.369 209.65C922.882 208.711 923.571 207.985 924.437 207.472C925.317 206.944 926.292 206.68 927.363 206.68C928.155 206.68 928.932 206.856 929.695 207.208C930.472 207.545 931.088 208 931.543 208.572V202.72H934.073V219H931.543V217.174C931.132 217.761 930.56 218.245 929.827 218.626C929.108 219.007 928.279 219.198 927.341 219.198C926.285 219.198 925.317 218.934 924.437 218.406C923.571 217.863 922.882 217.115 922.369 216.162C921.87 215.194 921.621 214.101 921.621 212.884ZM931.543 212.928C931.543 212.092 931.367 211.366 931.015 210.75C930.677 210.134 930.23 209.665 929.673 209.342C929.115 209.019 928.514 208.858 927.869 208.858C927.223 208.858 926.622 209.019 926.065 209.342C925.507 209.65 925.053 210.112 924.701 210.728C924.363 211.329 924.195 212.048 924.195 212.884C924.195 213.72 924.363 214.453 924.701 215.084C925.053 215.715 925.507 216.199 926.065 216.536C926.637 216.859 927.238 217.02 927.869 217.02C928.514 217.02 929.115 216.859 929.673 216.536C930.23 216.213 930.677 215.744 931.015 215.128C931.367 214.497 931.543 213.764 931.543 212.928ZM938.379 219.154C937.924 219.154 937.543 219 937.235 218.692C936.927 218.384 936.773 218.003 936.773 217.548C936.773 217.093 936.927 216.712 937.235 216.404C937.543 216.096 937.924 215.942 938.379 215.942C938.819 215.942 939.193 216.096 939.501 216.404C939.809 216.712 939.963 217.093 939.963 217.548C939.963 218.003 939.809 218.384 939.501 218.692C939.193 219 938.819 219.154 938.379 219.154ZM941.837 212.884C941.837 211.667 942.087 210.589 942.585 209.65C943.099 208.711 943.788 207.985 944.653 207.472C945.533 206.944 946.509 206.68 947.579 206.68C948.371 206.68 949.149 206.856 949.911 207.208C950.689 207.545 951.305 208 951.759 208.572V202.72H954.289V219H951.759V217.174C951.349 217.761 950.777 218.245 950.043 218.626C949.325 219.007 948.496 219.198 947.557 219.198C946.501 219.198 945.533 218.934 944.653 218.406C943.788 217.863 943.099 217.115 942.585 216.162C942.087 215.194 941.837 214.101 941.837 212.884ZM951.759 212.928C951.759 212.092 951.583 211.366 951.231 210.75C950.894 210.134 950.447 209.665 949.889 209.342C949.332 209.019 948.731 208.858 948.085 208.858C947.44 208.858 946.839 209.019 946.281 209.342C945.724 209.65 945.269 210.112 944.917 210.728C944.58 211.329 944.411 212.048 944.411 212.884C944.411 213.72 944.58 214.453 944.917 215.084C945.269 215.715 945.724 216.199 946.281 216.536C946.853 216.859 947.455 217.02 948.085 217.02C948.731 217.02 949.332 216.859 949.889 216.536C950.447 216.213 950.894 215.744 951.231 215.128C951.583 214.497 951.759 213.764 951.759 212.928ZM968.694 212.642C968.694 213.097 968.664 213.507 968.606 213.874H959.344C959.417 214.842 959.776 215.619 960.422 216.206C961.067 216.793 961.859 217.086 962.798 217.086C964.147 217.086 965.1 216.521 965.658 215.392H968.364C967.997 216.507 967.33 217.423 966.362 218.142C965.408 218.846 964.22 219.198 962.798 219.198C961.639 219.198 960.598 218.941 959.674 218.428C958.764 217.9 958.046 217.167 957.518 216.228C957.004 215.275 956.748 214.175 956.748 212.928C956.748 211.681 956.997 210.589 957.496 209.65C958.009 208.697 958.72 207.963 959.63 207.45C960.554 206.937 961.61 206.68 962.798 206.68C963.942 206.68 964.961 206.929 965.856 207.428C966.75 207.927 967.447 208.631 967.946 209.54C968.444 210.435 968.694 211.469 968.694 212.642ZM966.076 211.85C966.061 210.926 965.731 210.185 965.086 209.628C964.44 209.071 963.641 208.792 962.688 208.792C961.822 208.792 961.082 209.071 960.466 209.628C959.85 210.171 959.483 210.911 959.366 211.85H966.076ZM976.244 208.924H974V219H971.47V208.924H970.04V206.878H971.47V206.02C971.47 204.627 971.836 203.615 972.57 202.984C973.318 202.339 974.484 202.016 976.068 202.016V204.106C975.305 204.106 974.77 204.253 974.462 204.546C974.154 204.825 974 205.316 974 206.02V206.878H976.244V208.924ZM977.63 212.884C977.63 211.667 977.88 210.589 978.378 209.65C978.892 208.711 979.581 207.985 980.446 207.472C981.326 206.944 982.294 206.68 983.35 206.68C984.304 206.68 985.132 206.871 985.836 207.252C986.555 207.619 987.127 208.081 987.552 208.638V206.878H990.082V219H987.552V217.196C987.127 217.768 986.548 218.245 985.814 218.626C985.081 219.007 984.245 219.198 983.306 219.198C982.265 219.198 981.312 218.934 980.446 218.406C979.581 217.863 978.892 217.115 978.378 216.162C977.88 215.194 977.63 214.101 977.63 212.884ZM987.552 212.928C987.552 212.092 987.376 211.366 987.024 210.75C986.687 210.134 986.24 209.665 985.682 209.342C985.125 209.019 984.524 208.858 983.878 208.858C983.233 208.858 982.632 209.019 982.074 209.342C981.517 209.65 981.062 210.112 980.71 210.728C980.373 211.329 980.204 212.048 980.204 212.884C980.204 213.72 980.373 214.453 980.71 215.084C981.062 215.715 981.517 216.199 982.074 216.536C982.646 216.859 983.248 217.02 983.878 217.02C984.524 217.02 985.125 216.859 985.682 216.536C986.24 216.213 986.687 215.744 987.024 215.128C987.376 214.497 987.552 213.764 987.552 212.928ZM1004.35 206.878V219H1001.85V217.57C1001.45 218.069 1000.93 218.465 1000.28 218.758C999.654 219.037 998.979 219.176 998.261 219.176C997.307 219.176 996.449 218.978 995.687 218.582C994.939 218.186 994.345 217.599 993.905 216.822C993.479 216.045 993.267 215.106 993.267 214.006V206.878H995.753V213.632C995.753 214.717 996.024 215.553 996.567 216.14C997.109 216.712 997.85 216.998 998.789 216.998C999.727 216.998 1000.47 216.712 1001.01 216.14C1001.57 215.553 1001.85 214.717 1001.85 213.632V206.878H1004.35ZM1010.17 202.72V219H1007.66V202.72H1010.17ZM1016.39 208.924V215.634C1016.39 216.089 1016.49 216.419 1016.7 216.624C1016.92 216.815 1017.29 216.91 1017.8 216.91H1019.34V219H1017.36C1016.23 219 1015.36 218.736 1014.76 218.208C1014.16 217.68 1013.86 216.822 1013.86 215.634V208.924H1012.43V206.878H1013.86V203.864H1016.39V206.878H1019.34V208.924H1016.39Z" fill="#404040"/>
<path d="M609.707 372.293C609.317 371.902 608.683 371.902 608.293 372.293L601.929 378.657C601.538 379.047 601.538 379.681 601.929 380.071C602.319 380.462 602.953 380.462 603.343 380.071L609 374.414L614.657 380.071C615.047 380.462 615.681 380.462 616.071 380.071C616.462 379.681 616.462 379.047 616.071 378.657L609.707 372.293ZM610 412L610 373L608 373L608 412L610 412Z" fill="#8A2BE2"/>
<path d="M609.707 302.293C609.317 301.902 608.683 301.902 608.293 302.293L601.929 308.657C601.538 309.047 601.538 309.681 601.929 310.071C602.319 310.462 602.953 310.462 603.343 310.071L609 304.414L614.657 310.071C615.047 310.462 615.681 310.462 616.071 310.071C616.462 309.681 616.462 309.047 616.071 308.657L609.707 302.293ZM610 342L610 303L608 303L608 342L610 342Z" fill="#8A2BE2"/>
<path d="M609.707 227.293C609.317 226.902 608.683 226.902 608.293 227.293L601.929 233.657C601.538 234.047 601.538 234.681 601.929 235.071C602.319 235.462 602.953 235.462 603.343 235.071L609 229.414L614.657 235.071C615.047 235.462 615.681 235.462 616.071 235.071C616.462 234.681 616.462 234.047 616.071 233.657L609.707 227.293ZM610 267L610 228L608 228L608 267L610 267Z" fill="#8A2BE2"/>
<path d="M293.633 113.384C304.897 94.6127 332.103 94.6127 343.367 113.384L530.7 425.579C542.299 444.908 528.376 469.5 505.834 469.5H131.166C108.624 469.5 94.7009 444.908 106.299 425.579L293.633 113.384Z" fill="#B392F0" fill-opacity="0.2" stroke="black" stroke-width="2"/>
<path d="M1110.84 360.558H1115.9V363H1107.76V347.644H1110.84V360.558ZM1129.19 356.642C1129.19 357.082 1129.16 357.478 1129.1 357.83H1120.19C1120.26 358.71 1120.57 359.399 1121.11 359.898C1121.65 360.397 1122.32 360.646 1123.11 360.646C1124.26 360.646 1125.07 360.155 1125.56 359.172H1128.88C1128.53 360.345 1127.85 361.313 1126.85 362.076C1125.86 362.824 1124.63 363.198 1123.18 363.198C1122.01 363.198 1120.95 362.941 1120.01 362.428C1119.09 361.9 1118.36 361.159 1117.83 360.206C1117.32 359.253 1117.06 358.153 1117.06 356.906C1117.06 355.645 1117.32 354.537 1117.83 353.584C1118.35 352.631 1119.07 351.897 1119.99 351.384C1120.91 350.871 1121.98 350.614 1123.18 350.614C1124.34 350.614 1125.37 350.863 1126.28 351.362C1127.21 351.861 1127.92 352.572 1128.42 353.496C1128.93 354.405 1129.19 355.454 1129.19 356.642ZM1126 355.762C1125.98 354.97 1125.7 354.339 1125.14 353.87C1124.58 353.386 1123.9 353.144 1123.09 353.144C1122.33 353.144 1121.68 353.379 1121.16 353.848C1120.64 354.303 1120.33 354.941 1120.21 355.762H1126ZM1136.52 360.162L1139.6 350.812H1142.87L1138.36 363H1134.62L1130.14 350.812H1133.44L1136.52 360.162ZM1155.93 356.642C1155.93 357.082 1155.9 357.478 1155.85 357.83H1146.94C1147.01 358.71 1147.32 359.399 1147.86 359.898C1148.4 360.397 1149.07 360.646 1149.86 360.646C1151.01 360.646 1151.82 360.155 1152.3 359.172H1155.63C1155.27 360.345 1154.6 361.313 1153.6 362.076C1152.6 362.824 1151.38 363.198 1149.93 363.198C1148.75 363.198 1147.7 362.941 1146.76 362.428C1145.84 361.9 1145.11 361.159 1144.58 360.206C1144.07 359.253 1143.81 358.153 1143.81 356.906C1143.81 355.645 1144.07 354.537 1144.58 353.584C1145.1 352.631 1145.81 351.897 1146.74 351.384C1147.66 350.871 1148.73 350.614 1149.93 350.614C1151.09 350.614 1152.12 350.863 1153.03 351.362C1153.95 351.861 1154.67 352.572 1155.16 353.496C1155.68 354.405 1155.93 355.454 1155.93 356.642ZM1152.74 355.762C1152.73 354.97 1152.44 354.339 1151.89 353.87C1151.33 353.386 1150.65 353.144 1149.84 353.144C1149.08 353.144 1148.43 353.379 1147.9 353.848C1147.39 354.303 1147.08 354.941 1146.96 355.762H1152.74ZM1161.26 346.72V363H1158.18V346.72H1161.26ZM1168.82 349.8V346.962H1174.12V363H1170.96V349.8H1168.82Z" fill="#8A2BE2"/>
<path d="M1107.59 433.558H1112.65V436H1104.51V420.644H1107.59V433.558ZM1125.93 429.642C1125.93 430.082 1125.9 430.478 1125.85 430.83H1116.94C1117.01 431.71 1117.32 432.399 1117.86 432.898C1118.4 433.397 1119.07 433.646 1119.86 433.646C1121.01 433.646 1121.82 433.155 1122.3 432.172H1125.63C1125.27 433.345 1124.6 434.313 1123.6 435.076C1122.6 435.824 1121.38 436.198 1119.93 436.198C1118.75 436.198 1117.7 435.941 1116.76 435.428C1115.84 434.9 1115.11 434.159 1114.58 433.206C1114.07 432.253 1113.81 431.153 1113.81 429.906C1113.81 428.645 1114.07 427.537 1114.58 426.584C1115.1 425.631 1115.81 424.897 1116.74 424.384C1117.66 423.871 1118.73 423.614 1119.93 423.614C1121.09 423.614 1122.12 423.863 1123.03 424.362C1123.95 424.861 1124.67 425.572 1125.16 426.496C1125.68 427.405 1125.93 428.454 1125.93 429.642ZM1122.74 428.762C1122.73 427.97 1122.44 427.339 1121.89 426.87C1121.33 426.386 1120.65 426.144 1119.84 426.144C1119.08 426.144 1118.43 426.379 1117.9 426.848C1117.39 427.303 1117.08 427.941 1116.96 428.762H1122.74ZM1133.26 433.162L1136.34 423.812H1139.62L1135.11 436H1131.37L1126.88 423.812H1130.18L1133.26 433.162ZM1152.68 429.642C1152.68 430.082 1152.65 430.478 1152.59 430.83H1143.68C1143.76 431.71 1144.07 432.399 1144.61 432.898C1145.15 433.397 1145.82 433.646 1146.61 433.646C1147.75 433.646 1148.57 433.155 1149.05 432.172H1152.37C1152.02 433.345 1151.35 434.313 1150.35 435.076C1149.35 435.824 1148.13 436.198 1146.68 436.198C1145.5 436.198 1144.45 435.941 1143.51 435.428C1142.58 434.9 1141.86 434.159 1141.33 433.206C1140.82 432.253 1140.56 431.153 1140.56 429.906C1140.56 428.645 1140.82 427.537 1141.33 426.584C1141.84 425.631 1142.56 424.897 1143.49 424.384C1144.41 423.871 1145.47 423.614 1146.68 423.614C1147.83 423.614 1148.87 423.863 1149.78 424.362C1150.7 424.861 1151.41 425.572 1151.91 426.496C1152.43 427.405 1152.68 428.454 1152.68 429.642ZM1149.49 428.762C1149.48 427.97 1149.19 427.339 1148.63 426.87C1148.08 426.386 1147.39 426.144 1146.59 426.144C1145.83 426.144 1145.18 426.379 1144.65 426.848C1144.14 427.303 1143.82 427.941 1143.71 428.762H1149.49ZM1158.01 419.72V436H1154.93V419.72H1158.01ZM1165.94 427.772C1165.94 425.235 1166.4 423.247 1167.31 421.81C1168.23 420.373 1169.76 419.654 1171.88 419.654C1174.01 419.654 1175.53 420.373 1176.44 421.81C1177.36 423.247 1177.82 425.235 1177.82 427.772C1177.82 430.324 1177.36 432.326 1176.44 433.778C1175.53 435.23 1174.01 435.956 1171.88 435.956C1169.76 435.956 1168.23 435.23 1167.31 433.778C1166.4 432.326 1165.94 430.324 1165.94 427.772ZM1174.79 427.772C1174.79 426.687 1174.71 425.777 1174.57 425.044C1174.44 424.296 1174.16 423.687 1173.73 423.218C1173.32 422.749 1172.7 422.514 1171.88 422.514C1171.06 422.514 1170.44 422.749 1170.01 423.218C1169.6 423.687 1169.32 424.296 1169.18 425.044C1169.05 425.777 1168.98 426.687 1168.98 427.772C1168.98 428.887 1169.05 429.825 1169.18 430.588C1169.31 431.336 1169.59 431.945 1170.01 432.414C1170.44 432.869 1171.06 433.096 1171.88 433.096C1172.7 433.096 1173.33 432.869 1173.75 432.414C1174.18 431.945 1174.46 431.336 1174.59 430.588C1174.72 429.825 1174.79 428.887 1174.79 427.772Z" fill="#8A2BE2"/>
<path d="M1109.18 291.558H1114.24V294H1106.1V278.644H1109.18V291.558ZM1127.52 287.642C1127.52 288.082 1127.49 288.478 1127.44 288.83H1118.53C1118.6 289.71 1118.91 290.399 1119.45 290.898C1119.99 291.397 1120.66 291.646 1121.45 291.646C1122.6 291.646 1123.41 291.155 1123.89 290.172H1127.22C1126.86 291.345 1126.19 292.313 1125.19 293.076C1124.19 293.824 1122.97 294.198 1121.52 294.198C1120.34 294.198 1119.29 293.941 1118.35 293.428C1117.43 292.9 1116.7 292.159 1116.17 291.206C1115.66 290.253 1115.4 289.153 1115.4 287.906C1115.4 286.645 1115.66 285.537 1116.17 284.584C1116.69 283.631 1117.4 282.897 1118.33 282.384C1119.25 281.871 1120.32 281.614 1121.52 281.614C1122.68 281.614 1123.71 281.863 1124.62 282.362C1125.54 282.861 1126.26 283.572 1126.75 284.496C1127.27 285.405 1127.52 286.454 1127.52 287.642ZM1124.33 286.762C1124.32 285.97 1124.03 285.339 1123.48 284.87C1122.92 284.386 1122.24 284.144 1121.43 284.144C1120.67 284.144 1120.02 284.379 1119.49 284.848C1118.98 285.303 1118.67 285.941 1118.55 286.762H1124.33ZM1134.85 291.162L1137.93 281.812H1141.21L1136.7 294H1132.96L1128.47 281.812H1131.77L1134.85 291.162ZM1154.27 287.642C1154.27 288.082 1154.24 288.478 1154.18 288.83H1145.27C1145.35 289.71 1145.66 290.399 1146.2 290.898C1146.74 291.397 1147.41 291.646 1148.2 291.646C1149.34 291.646 1150.16 291.155 1150.64 290.172H1153.96C1153.61 291.345 1152.94 292.313 1151.94 293.076C1150.94 293.824 1149.72 294.198 1148.27 294.198C1147.09 294.198 1146.04 293.941 1145.1 293.428C1144.17 292.9 1143.45 292.159 1142.92 291.206C1142.41 290.253 1142.15 289.153 1142.15 287.906C1142.15 286.645 1142.41 285.537 1142.92 284.584C1143.43 283.631 1144.15 282.897 1145.08 282.384C1146 281.871 1147.06 281.614 1148.27 281.614C1149.42 281.614 1150.46 281.863 1151.37 282.362C1152.29 282.861 1153 283.572 1153.5 284.496C1154.02 285.405 1154.27 286.454 1154.27 287.642ZM1151.08 286.762C1151.07 285.97 1150.78 285.339 1150.22 284.87C1149.67 284.386 1148.98 284.144 1148.18 284.144C1147.42 284.144 1146.77 284.379 1146.24 284.848C1145.73 285.303 1145.41 285.941 1145.3 286.762H1151.08ZM1159.6 277.72V294H1156.52V277.72H1159.6ZM1168.5 290.524C1169.91 289.351 1171.03 288.375 1171.87 287.598C1172.7 286.806 1173.4 285.985 1173.96 285.134C1174.51 284.283 1174.79 283.447 1174.79 282.626C1174.79 281.878 1174.62 281.291 1174.27 280.866C1173.91 280.441 1173.37 280.228 1172.64 280.228C1171.9 280.228 1171.34 280.477 1170.94 280.976C1170.55 281.46 1170.34 282.127 1170.33 282.978H1167.34C1167.39 281.218 1167.91 279.883 1168.9 278.974C1169.89 278.065 1171.16 277.61 1172.68 277.61C1174.35 277.61 1175.64 278.057 1176.53 278.952C1177.43 279.832 1177.87 280.998 1177.87 282.45C1177.87 283.594 1177.57 284.687 1176.95 285.728C1176.33 286.769 1175.63 287.679 1174.84 288.456C1174.05 289.219 1173.01 290.143 1171.74 291.228H1178.23V293.78H1167.36V291.492L1168.5 290.524Z" fill="#8A2BE2"/>
<path d="M1108.64 216.558H1113.7V219H1105.56V203.644H1108.64V216.558ZM1126.99 212.642C1126.99 213.082 1126.96 213.478 1126.9 213.83H1117.99C1118.06 214.71 1118.37 215.399 1118.91 215.898C1119.46 216.397 1120.12 216.646 1120.91 216.646C1122.06 216.646 1122.87 216.155 1123.36 215.172H1126.68C1126.33 216.345 1125.65 217.313 1124.65 218.076C1123.66 218.824 1122.43 219.198 1120.98 219.198C1119.81 219.198 1118.75 218.941 1117.81 218.428C1116.89 217.9 1116.16 217.159 1115.63 216.206C1115.12 215.253 1114.86 214.153 1114.86 212.906C1114.86 211.645 1115.12 210.537 1115.63 209.584C1116.15 208.631 1116.87 207.897 1117.79 207.384C1118.71 206.871 1119.78 206.614 1120.98 206.614C1122.14 206.614 1123.17 206.863 1124.08 207.362C1125.01 207.861 1125.72 208.572 1126.22 209.496C1126.73 210.405 1126.99 211.454 1126.99 212.642ZM1123.8 211.762C1123.78 210.97 1123.5 210.339 1122.94 209.87C1122.38 209.386 1121.7 209.144 1120.89 209.144C1120.13 209.144 1119.48 209.379 1118.96 209.848C1118.44 210.303 1118.13 210.941 1118.01 211.762H1123.8ZM1134.32 216.162L1137.4 206.812H1140.67L1136.16 219H1132.42L1127.94 206.812H1131.24L1134.32 216.162ZM1153.73 212.642C1153.73 213.082 1153.71 213.478 1153.65 213.83H1144.74C1144.81 214.71 1145.12 215.399 1145.66 215.898C1146.2 216.397 1146.87 216.646 1147.66 216.646C1148.81 216.646 1149.62 216.155 1150.1 215.172H1153.43C1153.07 216.345 1152.4 217.313 1151.4 218.076C1150.41 218.824 1149.18 219.198 1147.73 219.198C1146.56 219.198 1145.5 218.941 1144.56 218.428C1143.64 217.9 1142.91 217.159 1142.38 216.206C1141.87 215.253 1141.61 214.153 1141.61 212.906C1141.61 211.645 1141.87 210.537 1142.38 209.584C1142.9 208.631 1143.61 207.897 1144.54 207.384C1145.46 206.871 1146.53 206.614 1147.73 206.614C1148.89 206.614 1149.92 206.863 1150.83 207.362C1151.75 207.861 1152.47 208.572 1152.96 209.496C1153.48 210.405 1153.73 211.454 1153.73 212.642ZM1150.54 211.762C1150.53 210.97 1150.24 210.339 1149.69 209.87C1149.13 209.386 1148.45 209.144 1147.64 209.144C1146.88 209.144 1146.23 209.379 1145.7 209.848C1145.19 210.303 1144.88 210.941 1144.76 211.762H1150.54ZM1159.06 202.72V219H1155.98V202.72H1159.06ZM1167.04 207.186C1167.11 205.719 1167.63 204.59 1168.58 203.798C1169.55 202.991 1170.82 202.588 1172.39 202.588C1173.46 202.588 1174.37 202.779 1175.14 203.16C1175.9 203.527 1176.47 204.033 1176.85 204.678C1177.25 205.309 1177.45 206.027 1177.45 206.834C1177.45 207.758 1177.2 208.543 1176.72 209.188C1176.25 209.819 1175.69 210.244 1175.03 210.464V210.552C1175.88 210.816 1176.54 211.285 1177.01 211.96C1177.49 212.635 1177.73 213.5 1177.73 214.556C1177.73 215.436 1177.53 216.221 1177.12 216.91C1176.72 217.599 1176.13 218.142 1175.33 218.538C1174.56 218.919 1173.62 219.11 1172.52 219.11C1170.86 219.11 1169.51 218.692 1168.47 217.856C1167.43 217.02 1166.88 215.788 1166.82 214.16H1169.81C1169.84 214.879 1170.08 215.458 1170.54 215.898C1171.01 216.323 1171.65 216.536 1172.45 216.536C1173.2 216.536 1173.77 216.331 1174.17 215.92C1174.58 215.495 1174.78 214.952 1174.78 214.292C1174.78 213.412 1174.51 212.781 1173.95 212.4C1173.39 212.019 1172.53 211.828 1171.35 211.828H1170.71V209.298H1171.35C1173.43 209.298 1174.48 208.601 1174.48 207.208C1174.48 206.577 1174.29 206.086 1173.9 205.734C1173.54 205.382 1173 205.206 1172.3 205.206C1171.61 205.206 1171.07 205.397 1170.69 205.778C1170.33 206.145 1170.11 206.614 1170.05 207.186H1167.04Z" fill="#8A2BE2"/>
</g>
<defs>
<clipPath id="clip0_188_926">
<rect width="1429" height="557" rx="20" fill="white"/>
</clipPath>
</defs>
</svg>
